<svg width="204" height="177" viewBox="0 0 204 177" fill="none" xmlns="http://www.w3.org/2000/svg">
<path d="M14.4756 83.1441C14.4756 83.1441 24.3605 51.6356 49.028 37.6586C73.6955 23.6817 100.921 20.9597 124.715 30.0917C148.509 39.2236 166.923 59.4614 175.906 86.353C184.888 113.244 173.489 139.236 173.489 139.236L14.4756 83.1441Z" fill="#2D2D2D"/>
<path d="M158 53.9994C84.6174 24.2152 56.4536 39.9693 14 83.5C24 54 46 33.4988 73.5 26.9992C101 20.4996 138 29.4999 158 53.9994Z" fill="#727272" fill-opacity="0.2"/>
<path d="M81.3635 106.576C79.3984 111.659 76.5937 116.36 73.1097 120.412C69.6257 124.463 65.5306 127.785 61.0582 130.187C56.5857 132.59 51.8236 134.026 47.0436 134.414C42.2636 134.802 37.5594 134.134 33.1996 132.449C28.8397 130.763 24.9097 128.093 21.6337 124.591C18.3578 121.088 15.8002 116.822 14.1069 112.036C12.4136 107.25 11.6178 102.037 11.765 96.6958C11.9121 91.3546 12.9993 85.9892 14.9644 80.906L48.164 93.7409L81.3635 106.576Z" fill="#2D2D2D"/>
<path d="M109.152 116.868C107.187 121.951 104.382 126.652 100.898 130.704C97.4145 134.755 93.3193 138.077 88.8469 140.479C84.3745 142.882 79.6123 144.318 74.8323 144.706C70.0523 145.094 65.3481 144.426 60.9883 142.741C56.6285 141.055 52.6984 138.385 49.4225 134.883C46.1465 131.38 43.5889 127.114 41.8956 122.328C40.2024 117.542 39.4066 112.329 39.5537 106.988C39.7008 101.647 40.788 96.2812 42.7532 91.198L75.9527 104.033L109.152 116.868Z" fill="#2D2D2D"/>
<path d="M144.145 128.189C142.18 133.272 139.376 137.974 135.892 142.025C132.408 146.076 128.312 149.398 123.84 151.8C119.368 154.203 114.605 155.639 109.825 156.027C105.045 156.415 100.341 155.747 95.9815 154.062C91.6216 152.376 87.6916 149.706 84.4156 146.204C81.1397 142.701 78.5821 138.435 76.8888 133.649C75.1955 128.863 74.3997 123.65 74.5469 118.309C74.694 112.968 75.7812 107.602 77.7463 102.519L110.946 115.354L144.145 128.189Z" fill="#2D2D2D"/>
<path d="M173.993 137.452C172.027 142.535 169.223 147.236 165.739 151.288C162.255 155.339 158.16 158.661 153.687 161.063C149.215 163.466 144.453 164.902 139.673 165.29C134.893 165.678 130.189 165.01 125.829 163.325C121.469 161.639 117.539 158.969 114.263 155.467C110.987 151.964 108.429 147.698 106.736 142.912C105.043 138.126 104.247 132.913 104.394 127.572C104.541 122.231 105.628 116.865 107.594 111.782L140.793 124.617L173.993 137.452Z" fill="#2D2D2D"/>
</svg>
