<svg width="671" height="500" viewBox="0 0 671 500" fill="none" xmlns="http://www.w3.org/2000/svg">
<circle cx="50.3985" cy="50.3985" r="50.3985" transform="matrix(0.962766 -0.270336 -0.270336 -0.962766 207.629 369.994)" fill="#2D2D2D"/>
<circle cx="50.3985" cy="50.3985" r="50.3985" transform="matrix(0.962766 -0.270336 -0.270336 -0.962766 274.414 427.804)" fill="#2D2D2D"/>
<circle cx="50.3985" cy="50.3985" r="50.3985" transform="matrix(0.962766 -0.270336 -0.270336 -0.962766 358.373 424.928)" fill="#2D2D2D"/>
<circle cx="50.3985" cy="50.3985" r="50.3985" transform="matrix(0.962766 -0.270336 -0.270336 -0.962766 403.522 354.738)" fill="#2D2D2D"/>
<path d="M262.226 360.417C269.275 172.185 238.658 63.9943 197.325 -97.0022C308.682 -117.91 369.526 -110.736 474.649 -59.7206C429.6 78.7242 420.659 183.76 435.977 334.646L262.226 360.417Z" fill="#2D2D2D"/>
</svg>
