<svg width="204" height="177" viewBox="0 0 204 177" fill="none" xmlns="http://www.w3.org/2000/svg">
<path d="M189.283 83.1441C189.283 83.1441 179.398 51.6356 154.73 37.6586C130.063 23.6817 102.837 20.9597 79.0431 30.0917C55.2489 39.2236 36.835 59.4614 27.8524 86.353C18.8698 113.244 30.2694 139.236 30.2694 139.236L189.283 83.1441Z" fill="#2D2D2D"/>
<path d="M122.395 106.576C124.36 111.659 127.165 116.36 130.649 120.412C134.133 124.463 138.228 127.785 142.7 130.187C147.173 132.59 151.935 134.026 156.715 134.414C161.495 134.802 166.199 134.134 170.559 132.449C174.919 130.763 178.849 128.093 182.125 124.591C185.4 121.088 187.958 116.822 189.651 112.036C191.345 107.25 192.14 102.037 191.993 96.6958C191.846 91.3546 190.759 85.9892 188.794 80.906L155.594 93.7409L122.395 106.576Z" fill="#2D2D2D"/>
<path d="M94.606 116.868C96.5712 121.951 99.3758 126.652 102.86 130.704C106.344 134.755 110.439 138.077 114.911 140.479C119.384 142.882 124.146 144.318 128.926 144.706C133.706 145.094 138.41 144.426 142.77 142.741C147.13 141.055 151.06 138.385 154.336 134.883C157.612 131.38 160.169 127.114 161.863 122.328C163.556 117.542 164.352 112.329 164.205 106.988C164.057 101.647 162.97 96.2812 161.005 91.198L127.806 104.033L94.606 116.868Z" fill="#2D2D2D"/>
<path d="M59.6128 128.189C61.578 133.272 64.3826 137.974 67.8666 142.025C71.3506 146.076 75.4458 149.398 79.9182 151.8C84.3906 154.203 89.1528 155.639 93.9328 156.027C98.7128 156.415 103.417 155.747 107.777 154.062C112.137 152.376 116.067 149.706 119.343 146.204C122.619 142.701 125.176 138.435 126.869 133.649C128.563 128.863 129.359 123.65 129.211 118.309C129.064 112.968 127.977 107.602 126.012 102.519L92.8124 115.354L59.6128 128.189Z" fill="#2D2D2D"/>
<path d="M29.7656 137.452C31.7308 142.535 34.5354 147.236 38.0194 151.288C41.5034 155.339 45.5985 158.661 50.071 161.063C54.5434 163.466 59.3056 164.902 64.0856 165.29C68.8655 165.678 73.5697 165.01 77.9296 163.325C82.2894 161.639 86.2195 158.969 89.4954 155.467C92.7713 151.964 95.3289 147.698 97.0222 142.912C98.7155 138.126 99.5113 132.913 99.3642 127.572C99.217 122.231 98.1299 116.865 96.1647 111.782L62.9651 124.617L29.7656 137.452Z" fill="#2D2D2D"/>
<path d="M148.5 34.5001C69.353 37.306 46.4568 64.4206 25.5 121.5C20 90.4999 37 58.9997 57 43C77 27.0002 120 18.5 148.5 34.5001Z" fill="#727272" fill-opacity="0.2"/>
</svg>
