<svg width="503" height="493" viewBox="0 0 503 493" fill="none" xmlns="http://www.w3.org/2000/svg">
<path d="M78.5926 416.153C70.9834 407.15 64.0996 397.312 58.0762 386.677C6.29805 295.257 37.7046 179.584 128.227 128.315C183.612 96.9463 248.296 96.9558 302.022 122.633C316.828 82.3501 345.328 46.9984 385.428 24.2869C475.08 -26.4899 589.091 4.95008 641.572 94.3709L641.593 94.3594C742.171 37.3945 870.342 73.561 927.874 175.141C985.406 276.72 950.511 405.243 849.933 462.208L314.004 765.745C213.429 822.708 85.2563 786.542 27.7242 684.963C-24.2964 593.114 -0.748561 479.242 78.5926 416.153Z" fill="white"/>
</svg>
