<svg width="268" height="237" viewBox="0 0 268 237" fill="none" xmlns="http://www.w3.org/2000/svg">
<path d="M134.268 133.225C126.287 127.188 114.763 132.054 113.525 141.985L109.93 170.82C108.692 180.75 118.669 188.297 127.888 184.404L154.657 173.1C163.876 169.206 165.423 156.793 157.442 150.756L134.268 133.225Z" fill="#ADADAD" fill-opacity="0.2"/>
<path d="M122.698 131.035C114.771 124.928 103.204 129.693 101.879 139.612L98.0304 168.414C96.705 178.333 106.615 185.967 115.868 182.156L142.735 171.087C151.988 167.276 153.645 154.877 145.717 148.769L122.698 131.035Z" fill="#EDC61B"/>
<rect width="3.89687" height="9.92391" rx="1.94844" transform="matrix(-0.989371 -0.145415 -0.145415 0.989371 108 141.566)" fill="white"/>
<rect width="3.89687" height="3.86216" rx="1.93108" transform="matrix(-0.961875 -0.273491 -0.273491 0.961875 111 135.066)" fill="white"/>
<path d="M213.698 155.035C205.77 148.928 194.204 153.693 192.879 163.612L189.03 192.414C187.705 202.333 197.614 209.967 206.867 206.156L233.735 195.087C242.988 191.276 244.645 178.877 236.717 172.769L213.698 155.035Z" fill="#ADADAD" fill-opacity="0.2"/>
<path d="M202.698 151.035C194.77 144.928 183.204 149.693 181.879 159.612L178.03 188.414C176.705 198.333 186.614 205.967 195.867 202.156L222.735 191.087C231.988 187.276 233.645 174.877 225.717 168.769L202.698 151.035Z" fill="#EDC61B"/>
<rect width="3.89687" height="9.92391" rx="1.94844" transform="matrix(-0.989371 -0.145415 -0.145415 0.989371 188 162.566)" fill="white"/>
<rect width="3.89687" height="3.86216" rx="1.93108" transform="matrix(-0.961875 -0.273491 -0.273491 0.961875 191 156.066)" fill="white"/>
<path fill-rule="evenodd" clip-rule="evenodd" d="M120.305 3.47152C114.42 -1.34141 106.254 0.058708 101.962 5.33981C102.059 5.34064 102.157 5.34157 102.255 5.34442C109.983 5.56903 116.067 12.0159 115.842 19.7442C115.668 25.7579 111.725 30.775 106.343 32.5997C106.613 33.7555 106.741 34.9649 106.705 36.2074C106.487 43.7072 100.409 49.6566 92.987 49.7971C91.6009 59.5421 101.187 67.2772 110.458 63.7695L146.541 50.1177C155.901 46.5763 157.918 34.2306 150.171 27.8954L120.305 3.47152Z" fill="#ADADAD" fill-opacity="0.2"/>
<path fill-rule="evenodd" clip-rule="evenodd" d="M113.066 4.71597C108.323 1.0624 102.279 1.30038 97.9035 4.20425C101.448 6.59351 103.778 10.6457 103.778 15.2414C103.777 20.5359 100.684 25.1069 96.2053 27.2472C96.9456 28.9033 97.3567 30.7388 97.3567 32.6701C97.3566 38.6578 93.3998 43.7205 87.9582 45.3878L87.6897 47.3947C86.3643 57.3139 96.2736 64.9486 105.527 61.1369L137.338 48.0314C146.591 44.2196 148.248 31.8205 140.321 25.713L113.066 4.71597Z" fill="#EDC61B"/>
<path fill-rule="evenodd" clip-rule="evenodd" d="M33.3197 75.2358C35.3565 68.2801 42.2931 64.8115 48.5896 66.1763C42.8324 70.5702 41.6137 78.7824 45.8994 84.6666C49.2809 89.3091 55.0926 91.1335 60.3161 89.6678C60.7265 90.7247 61.2785 91.7471 61.9775 92.7068C66.1834 98.481 74.1486 99.8966 80.0657 96.0426C85.8192 103.336 82.199 114.419 72.8973 116.683L39.0917 124.911C29.3683 127.277 20.7297 118.23 23.542 108.626L33.3197 75.2358Z" fill="#ADADAD" fill-opacity="0.2"/>
<path fill-rule="evenodd" clip-rule="evenodd" d="M28.1177 79.1322C30.1441 72.2119 37.0208 68.743 43.2916 70.052C37.6073 74.4343 36.4155 82.5744 40.6673 88.4122C44.0324 93.0324 49.8159 94.8492 55.0142 93.3905C55.4225 94.4417 55.9717 95.4582 56.667 96.4128C60.8505 102.157 68.772 103.567 74.6597 99.7385C80.324 107.033 76.6964 118.044 67.4289 120.3L33.9984 128.436C24.275 130.802 15.6364 121.755 18.4487 112.151L28.1177 79.1322Z" fill="#EDC61B"/>
<rect width="3.89687" height="9.92391" rx="1.94844" transform="matrix(-0.961875 -0.273491 -0.273491 0.961875 33.9771 82.0654)" fill="white"/>
<rect width="3.89687" height="3.86216" rx="1.93108" transform="matrix(-0.961875 -0.273491 -0.273491 0.961875 36 77.0654)" fill="white"/>
<path opacity="0.2" d="M54.7133 74.1135C53.184 76.1009 54.394 78.1215 55.7216 79.8108C56.461 80.7548 57.2004 81.6823 57.9567 82.5932C58.5427 83.3901 59.2929 84.0561 60.1581 84.5475C61.1687 84.9489 62.2673 85.0865 63.3477 84.9473C64.428 84.808 65.4537 84.3965 66.3256 83.7525C67.2383 83.3025 67.9833 82.5797 68.4542 81.6873C68.925 80.795 69.0975 79.7788 68.9472 78.7839C68.9725 78.4974 68.9725 78.2093 68.9472 77.9227C68.6174 76.9412 68.1599 76.0059 67.586 75.1403C67.2984 74.6897 67.083 74.1981 66.9474 73.6828C66.8687 73.09 66.8406 72.4917 66.8634 71.8942C66.8095 70.9544 66.4349 70.0601 65.8004 69.3566C65.1658 68.653 64.3086 68.1815 63.3679 68.0187C62.4719 67.9452 61.5713 68.0894 60.7451 68.4388C59.9188 68.7882 59.1922 69.332 58.6289 70.0227C57.9903 70.6686 57.4357 71.3807 56.8139 72.0432C56.0696 72.6884 55.368 73.3799 54.7133 74.1135Z" fill="black"/>
<path opacity="0.2" d="M24.482 65.6347C25.3631 65.9085 26.2784 66.0229 27.1926 65.9736C27.4581 66.0212 27.7299 66.0043 27.989 65.9242C28.2481 65.8442 28.4884 65.7028 28.6931 65.5099C29.0208 65.0942 29.2679 64.6086 29.4191 64.0831C29.7957 63.1827 29.9938 62.2036 30 61.2117C30.0035 60.3235 29.7427 59.4586 29.2578 58.7504C29.0457 58.4367 28.7741 58.1783 28.4618 57.9934C28.1496 57.8085 27.8044 57.7016 27.4507 57.6803C27.4095 57.5608 27.3469 57.4517 27.2664 57.3598C27.186 57.2678 27.0895 57.1948 26.9829 57.1453C26.5247 56.9754 26.032 56.954 25.5632 57.0836C25.0943 57.2132 24.6688 57.4883 24.3368 57.8765C23.6567 58.7048 23.2426 59.758 23.159 60.8728C22.9009 62.5671 22.7395 64.85 24.482 65.6347Z" fill="black"/>
<path opacity="0.2" d="M71.2368 2.75658C70.4984 3.57414 70.0632 4.65557 70.0135 5.79624C69.9319 6.9334 70.2227 8.06539 70.8353 8.99463C71.4478 9.92387 72.3432 10.5913 73.3651 10.8805C73.8801 11.0176 74.416 11.037 74.9384 10.9373C75.4607 10.8376 75.958 10.621 76.3982 10.3015C76.8131 10.01 77.1663 9.62724 77.4349 9.17828C77.7034 8.72932 77.8812 8.22425 77.9567 7.69605C78.0303 7.24794 78.0099 6.78768 77.8968 6.34926C77.7836 5.91084 77.5808 5.50546 77.3032 5.16299C77.0657 4.85538 76.7825 4.59246 76.4653 4.38497C76.2227 4.25885 75.9704 4.15593 75.7111 4.07738C75.304 3.33038 74.7272 2.70769 74.0354 2.26805C73.5791 2.02837 73.0654 1.94666 72.5645 2.0341C72.0636 2.12154 71.5999 2.37387 71.2368 2.75658Z" fill="black"/>
<path opacity="0.2" d="M9.59758 58.1014C9.81507 57.834 9.94979 57.5215 9.98845 57.1944C10.0271 56.8674 9.96837 56.5371 9.81806 56.2361C9.72958 56.1089 9.62109 55.9933 9.49582 55.8929C9.43096 55.8031 9.35091 55.7226 9.25841 55.6541C9.03553 55.4887 8.77544 55.3667 8.49521 55.2959H8.39345C8.2362 55.0159 8.01729 54.7662 7.74944 54.5613C7.48159 54.3563 7.17011 54.2003 6.83313 54.1021C6.46355 53.9913 6.06685 53.9702 5.6848 54.0411C5.30275 54.112 4.94951 54.2723 4.66229 54.505C4.37765 54.7565 4.17422 55.0702 4.07288 55.4137C3.97154 55.7573 3.97596 56.1184 4.08567 56.4599C4.28949 57.1367 4.72366 57.7425 5.32996 58.1959C5.93625 58.6494 6.68565 58.9288 7.47761 58.9968C7.88806 59.0166 8.29754 58.9449 8.66813 58.7884C9.03871 58.6319 9.35841 58.3956 9.59758 58.1014Z" fill="black"/>
<path opacity="0.2" d="M58.0226 21.3339C58.1327 22.1023 58.4795 22.809 59.0076 23.3411C59.2943 23.7033 59.6963 23.9382 60.1354 24C60.3621 23.9971 60.5842 23.9304 60.7795 23.8068C60.9749 23.6831 61.1367 23.5067 61.2488 23.2952C61.2488 23.2952 61.363 23.0806 61.4201 23.004C61.6628 22.8661 61.9055 22.7742 62.1339 22.621C62.4685 22.3989 62.7323 22.0729 62.8904 21.6863C62.9969 21.378 63.0265 21.0452 62.9761 20.7209C62.9556 20.3946 62.8438 20.0825 62.6553 19.8255C62.4668 19.5686 62.2105 19.3786 61.9197 19.2806C61.8966 19.175 61.8631 19.0722 61.8198 18.9742C61.6402 18.6498 61.3785 18.387 61.0651 18.2161C60.7518 18.0452 60.3996 17.9733 60.0497 18.0089C59.3989 18.2143 58.8375 18.6616 58.4661 19.2709C58.0946 19.8802 57.9374 20.6115 58.0226 21.3339Z" fill="black"/>
<path d="M50.7133 72.1135C49.184 74.1009 50.394 76.1215 51.7216 77.8108C52.461 78.7548 53.2004 79.6823 53.9567 80.5932C54.5427 81.3901 55.2929 82.0561 56.1581 82.5475C57.1687 82.9489 58.2673 83.0865 59.3477 82.9473C60.428 82.808 61.4537 82.3965 62.3256 81.7525C63.2383 81.3025 63.9833 80.5797 64.4542 79.6873C64.925 78.795 65.0975 77.7788 64.9472 76.7839C64.9725 76.4974 64.9725 76.2093 64.9472 75.9227C64.6174 74.9412 64.1599 74.0059 63.586 73.1403C63.2984 72.6897 63.083 72.1981 62.9474 71.6828C62.8687 71.09 62.8406 70.4917 62.8634 69.8942C62.8095 68.9544 62.4349 68.0601 61.8004 67.3566C61.1658 66.653 60.3086 66.1815 59.3679 66.0187C58.4719 65.9452 57.5713 66.0894 56.7451 66.4388C55.9188 66.7882 55.1922 67.332 54.6289 68.0227C53.9903 68.6686 53.4357 69.3807 52.8139 70.0432C52.0696 70.6884 51.368 71.3799 50.7133 72.1135Z" fill="#EDC61B"/>
<path d="M20.482 63.6347C21.3631 63.9085 22.2784 64.0229 23.1926 63.9736C23.4581 64.0212 23.7299 64.0043 23.989 63.9242C24.2481 63.8442 24.4884 63.7028 24.6931 63.5099C25.0208 63.0942 25.2679 62.6086 25.4191 62.0831C25.7957 61.1827 25.9938 60.2036 26 59.2117C26.0035 58.3235 25.7427 57.4586 25.2578 56.7504C25.0457 56.4367 24.7741 56.1783 24.4618 55.9934C24.1496 55.8085 23.8044 55.7016 23.4507 55.6803C23.4095 55.5608 23.3469 55.4517 23.2664 55.3598C23.186 55.2678 23.0895 55.1948 22.9829 55.1453C22.5247 54.9754 22.032 54.954 21.5632 55.0836C21.0943 55.2132 20.6688 55.4883 20.3368 55.8765C19.6567 56.7048 19.2426 57.758 19.159 58.8728C18.9009 60.5671 18.7395 62.85 20.482 63.6347Z" fill="#EDC61B"/>
<path d="M67.2368 0.756576C66.4984 1.57414 66.0632 2.65557 66.0135 3.79624C65.9319 4.9334 66.2227 6.06539 66.8353 6.99463C67.4478 7.92387 68.3432 8.59132 69.3651 8.88047C69.8801 9.01763 70.416 9.037 70.9384 8.93728C71.4607 8.83757 71.958 8.62101 72.3982 8.30149C72.8131 8.00998 73.1663 7.62724 73.4349 7.17828C73.7034 6.72932 73.8812 6.22425 73.9567 5.69605C74.0303 5.24794 74.0099 4.78768 73.8968 4.34926C73.7836 3.91084 73.5808 3.50546 73.3032 3.16299C73.0657 2.85538 72.7825 2.59246 72.4653 2.38497C72.2227 2.25885 71.9704 2.15593 71.7111 2.07738C71.304 1.33038 70.7272 0.707686 70.0354 0.268048C69.5791 0.0283671 69.0654 -0.0533436 68.5645 0.0340959C68.0636 0.121535 67.5999 0.373867 67.2368 0.756576Z" fill="#EDC61B"/>
<path d="M5.59758 56.1014C5.81507 55.834 5.94979 55.5215 5.98845 55.1944C6.0271 54.8674 5.96837 54.5371 5.81806 54.2361C5.72958 54.1089 5.62109 53.9933 5.49582 53.8929C5.43096 53.8031 5.35091 53.7226 5.25841 53.6541C5.03553 53.4887 4.77544 53.3667 4.49521 53.2959H4.39345C4.2362 53.0159 4.01729 52.7662 3.74944 52.5613C3.48159 52.3563 3.17011 52.2003 2.83313 52.1021C2.46355 51.9913 2.06685 51.9702 1.6848 52.0411C1.30275 52.112 0.94951 52.2723 0.662291 52.505C0.377648 52.7565 0.17422 53.0702 0.0728822 53.4137C-0.0284553 53.7573 -0.024044 54.1184 0.0856662 54.4599C0.289487 55.1367 0.723665 55.7425 1.32996 56.1959C1.93625 56.6494 2.68565 56.9288 3.47761 56.9968C3.88806 57.0166 4.29754 56.9449 4.66813 56.7884C5.03871 56.6319 5.35841 56.3956 5.59758 56.1014Z" fill="#EDC61B"/>
<path d="M54.0226 19.3339C54.1327 20.1023 54.4795 20.809 55.0076 21.3411C55.2943 21.7033 55.6963 21.9382 56.1354 22C56.3621 21.9971 56.5842 21.9304 56.7795 21.8068C56.9749 21.6831 57.1367 21.5067 57.2488 21.2952C57.2488 21.2952 57.363 21.0806 57.4201 21.004C57.6628 20.8661 57.9055 20.7742 58.1339 20.621C58.4685 20.3989 58.7323 20.0729 58.8904 19.6863C58.9969 19.378 59.0265 19.0452 58.9761 18.7209C58.9556 18.3946 58.8438 18.0825 58.6553 17.8255C58.4668 17.5686 58.2105 17.3786 57.9197 17.2806C57.8966 17.175 57.8631 17.0722 57.8198 16.9742C57.6402 16.6498 57.3785 16.387 57.0651 16.2161C56.7518 16.0452 56.3996 15.9733 56.0497 16.0089C55.3989 16.2143 54.8375 16.6616 54.4661 17.2709C54.0946 17.8802 53.9374 18.6115 54.0226 19.3339Z" fill="#EDC61B"/>
<path opacity="0.2" d="M84.5245 35.0442C85.544 33.7582 84.7373 32.4508 83.8523 31.3577C83.3593 30.7469 82.8664 30.1468 82.3622 29.5574C81.9716 29.0417 81.4714 28.6108 80.8946 28.2928C80.2209 28.0331 79.4885 27.944 78.7682 28.0341C78.048 28.1242 77.3642 28.3905 76.7829 28.8072C76.1745 29.0984 75.6778 29.5661 75.3639 30.1435C75.05 30.7209 74.935 31.3784 75.0352 32.0222C75.0184 32.2076 75.0184 32.394 75.0352 32.5794C75.2551 33.2145 75.5601 33.8197 75.9427 34.3798C76.1344 34.6714 76.278 34.9895 76.3684 35.3229C76.4209 35.7065 76.4396 36.0936 76.4244 36.4802C76.4603 37.0884 76.7101 37.667 77.1331 38.1222C77.5561 38.5775 78.1276 38.8825 78.7547 38.9879C79.3521 39.0355 79.9525 38.9422 80.5033 38.7161C81.0541 38.49 81.5385 38.1381 81.9141 37.6912C82.3398 37.2733 82.7095 36.8125 83.1241 36.3838C83.6203 35.9663 84.088 35.5189 84.5245 35.0442Z" fill="black"/>
<path opacity="0.2" d="M120.941 94.2029C120.312 94.0508 119.658 93.9873 119.005 94.0147C118.816 93.9882 118.622 93.9976 118.436 94.0421C118.251 94.0866 118.08 94.1651 117.934 94.2723C117.699 94.5032 117.523 94.773 117.415 95.065C117.146 95.5652 117.004 96.1091 117 96.6602C116.997 97.1536 117.184 97.6341 117.53 98.0275C117.682 98.2018 117.876 98.3454 118.099 98.4481C118.322 98.5508 118.568 98.6102 118.821 98.6221C118.85 98.6885 118.895 98.749 118.953 98.8001C119.01 98.8512 119.079 98.8918 119.155 98.9193C119.482 99.0137 119.834 99.0255 120.169 98.9535C120.504 98.8816 120.808 98.7287 121.045 98.5131C121.531 98.0529 121.827 97.4678 121.886 96.8485C122.071 95.9072 122.186 94.6389 120.941 94.2029Z" fill="black"/>
<path opacity="0.2" d="M76.227 147.496C76.6885 146.951 76.9605 146.23 76.9916 145.469C77.0426 144.711 76.8608 143.956 76.478 143.337C76.0951 142.717 75.5355 142.272 74.8968 142.08C74.5749 141.988 74.24 141.975 73.9135 142.042C73.5871 142.108 73.2763 142.253 73.0011 142.466C72.7418 142.66 72.521 142.915 72.3532 143.214C72.1853 143.514 72.0742 143.851 72.0271 144.203C71.981 144.501 71.9938 144.808 72.0645 145.1C72.1352 145.393 72.262 145.663 72.4355 145.891C72.584 146.096 72.7609 146.272 72.9592 146.41C73.1108 146.494 73.2685 146.563 73.4305 146.615C73.685 147.113 74.0455 147.528 74.4779 147.821C74.7631 147.981 75.0841 148.036 75.3972 147.977C75.7103 147.919 76.0001 147.751 76.227 147.496Z" fill="black"/>
<path opacity="0.2" d="M130.268 98.5391C130.123 98.6996 130.033 98.8871 130.008 99.0833C129.982 99.2796 130.021 99.4777 130.121 99.6584C130.18 99.7347 130.253 99.804 130.336 99.8643C130.379 99.9181 130.433 99.9665 130.494 100.008C130.643 100.107 130.816 100.18 131.003 100.222H131.071C131.176 100.39 131.322 100.54 131.5 100.663C131.679 100.786 131.887 100.88 132.111 100.939C132.358 101.005 132.622 101.018 132.877 100.975C133.131 100.933 133.367 100.837 133.558 100.697C133.748 100.546 133.884 100.358 133.951 100.152C134.019 99.9456 134.016 99.729 133.943 99.5241C133.807 99.118 133.518 98.7545 133.113 98.4824C132.709 98.2104 132.21 98.0427 131.682 98.0019C131.408 97.9901 131.135 98.033 130.888 98.127C130.641 98.2209 130.428 98.3626 130.268 98.5391Z" fill="black"/>
<path opacity="0.2" d="M84.9864 134.777C84.9204 134.265 84.7123 133.794 84.3954 133.439C84.2234 133.198 83.9822 133.041 83.7188 133C83.5827 133.002 83.4495 133.046 83.3323 133.129C83.2151 133.211 83.118 133.329 83.0507 133.47C83.0507 133.47 82.9822 133.613 82.9479 133.664C82.8023 133.756 82.6567 133.817 82.5197 133.919C82.3189 134.067 82.1606 134.285 82.0657 134.542C82.0018 134.748 81.9841 134.97 82.0143 135.186C82.0266 135.404 82.0937 135.612 82.2068 135.783C82.3199 135.954 82.4737 136.081 82.6482 136.146C82.662 136.217 82.6821 136.285 82.7081 136.351C82.8159 136.567 82.9729 136.742 83.1609 136.856C83.3489 136.97 83.5602 137.018 83.7702 136.994C84.1607 136.857 84.4975 136.559 84.7204 136.153C84.9432 135.747 85.0376 135.259 84.9864 134.777Z" fill="black"/>
<path d="M87.5245 36.6846C88.544 35.2817 87.7373 33.8554 86.8523 32.663C86.3593 31.9966 85.8664 31.3419 85.3622 30.6989C84.9716 30.1364 84.4714 29.6663 83.8946 29.3194C83.2209 29.0361 82.4885 28.9389 81.7682 29.0372C81.048 29.1355 80.3642 29.426 79.7829 29.8806C79.1745 30.1982 78.6778 30.7084 78.3639 31.3383C78.05 31.9682 77.935 32.6856 78.0352 33.3878C78.0184 33.5901 78.0184 33.7935 78.0352 33.9957C78.2551 34.6886 78.5601 35.3488 78.9427 35.9598C79.1344 36.2779 79.278 36.6249 79.3684 36.9886C79.4209 37.4071 79.4396 37.8294 79.4244 38.2512C79.4603 38.9146 79.7101 39.5458 80.1331 40.0424C80.5561 40.539 81.1276 40.8719 81.7547 40.9868C82.3521 41.0387 82.9525 40.9369 83.5033 40.6903C84.0541 40.4436 84.5385 40.0597 84.9141 39.5722C85.3398 39.1163 85.7095 38.6136 86.1241 38.146C86.6203 37.6905 87.088 37.2024 87.5245 36.6846Z" fill="#EDC61B"/>
<path d="M123.153 95.2435C122.65 95.061 122.127 94.9847 121.604 95.0176C121.452 94.9859 121.297 94.9971 121.149 95.0505C121.001 95.1039 120.864 95.1981 120.747 95.3268C120.56 95.6039 120.418 95.9276 120.332 96.2779C120.117 96.8782 120.004 97.5309 120 98.1922C119.998 98.7844 120.147 99.3609 120.424 99.8331C120.545 100.042 120.701 100.214 120.879 100.338C121.057 100.461 121.255 100.532 121.457 100.546C121.48 100.626 121.516 100.699 121.562 100.76C121.608 100.821 121.663 100.87 121.724 100.903C121.986 101.016 122.267 101.031 122.535 100.944C122.803 100.858 123.046 100.674 123.236 100.416C123.625 99.8635 123.861 99.1614 123.909 98.4181C124.057 97.2886 124.149 95.7667 123.153 95.2435Z" fill="#EDC61B"/>
<path d="M79.227 148.496C79.6885 147.951 79.9605 147.23 79.9916 146.469C80.0426 145.711 79.8608 144.956 79.478 144.337C79.0951 143.717 78.5355 143.272 77.8968 143.08C77.5749 142.988 77.24 142.975 76.9135 143.042C76.5871 143.108 76.2763 143.253 76.0011 143.466C75.7418 143.66 75.521 143.915 75.3532 144.214C75.1853 144.514 75.0742 144.851 75.0271 145.203C74.981 145.501 74.9938 145.808 75.0645 146.1C75.1352 146.393 75.262 146.663 75.4355 146.891C75.584 147.096 75.7609 147.272 75.9592 147.41C76.1108 147.494 76.2685 147.563 76.4305 147.615C76.685 148.113 77.0455 148.528 77.4779 148.821C77.7631 148.981 78.0841 149.036 78.3972 148.977C78.7103 148.919 79.0001 148.751 79.227 148.496Z" fill="#EDC61B"/>
<path d="M133.268 99.7189C133.123 99.9328 133.033 100.183 133.008 100.444C132.982 100.706 133.021 100.97 133.121 101.211C133.18 101.313 133.253 101.405 133.336 101.486C133.379 101.558 133.433 101.622 133.494 101.677C133.643 101.809 133.816 101.907 134.003 101.963H134.071C134.176 102.187 134.322 102.387 134.5 102.551C134.679 102.715 134.887 102.84 135.111 102.918C135.358 103.007 135.622 103.024 135.877 102.967C136.131 102.91 136.367 102.782 136.558 102.596C136.748 102.395 136.884 102.144 136.951 101.869C137.019 101.594 137.016 101.305 136.943 101.032C136.807 100.491 136.518 100.006 136.113 99.6433C135.709 99.2805 135.21 99.057 134.682 99.0026C134.408 98.9867 134.135 99.0441 133.888 99.1693C133.641 99.2945 133.428 99.4835 133.268 99.7189Z" fill="#EDC61B"/>
<path d="M87.9864 135.777C87.9204 135.265 87.7123 134.794 87.3954 134.439C87.2234 134.198 86.9822 134.041 86.7188 134C86.5827 134.002 86.4495 134.046 86.3323 134.129C86.2151 134.211 86.118 134.329 86.0507 134.47C86.0507 134.47 85.9822 134.613 85.9479 134.664C85.8023 134.756 85.6567 134.817 85.5197 134.919C85.3189 135.067 85.1606 135.285 85.0657 135.542C85.0018 135.748 84.9841 135.97 85.0143 136.186C85.0266 136.404 85.0937 136.612 85.2068 136.783C85.3199 136.954 85.4737 137.081 85.6482 137.146C85.662 137.217 85.6821 137.285 85.7081 137.351C85.8159 137.567 85.9729 137.742 86.1609 137.856C86.3489 137.97 86.5602 138.018 86.7702 137.994C87.1607 137.857 87.4975 137.559 87.7204 137.153C87.9432 136.747 88.0376 136.259 87.9864 135.777Z" fill="#EDC61B"/>
</svg>
