<svg width="270" height="394" viewBox="0 0 270 394" fill="none" xmlns="http://www.w3.org/2000/svg">
<path d="M85.512 280.093C89.7657 246.064 118.693 220.527 152.987 220.527H208.744C242.703 220.527 271.457 245.581 276.104 279.221L288.466 368.693C294.112 409.56 262.361 446 221.105 446H141.803C100.901 446 69.2547 410.151 74.328 369.565L85.512 280.093Z" fill="#2D2D2D"/>
<path d="M108.596 308.072C113.109 271.629 144.074 244.262 180.796 244.262C217.163 244.262 247.943 271.116 252.875 307.148L255.332 325.1C261.506 370.212 226.445 410.399 180.913 410.399C135.767 410.399 100.821 370.859 106.369 326.055L108.596 308.072Z" fill="white"/>
<path d="M53.1195 78.9081C53.2573 66.0122 68.5278 59.2907 78.131 67.8991L120.272 105.675C128.389 112.952 126.28 126.182 116.303 130.574L73.5568 149.389C63.5797 153.78 52.3983 146.4 52.5148 135.499L53.1195 78.9081Z" fill="#6F86F3"/>
<rect x="276.038" y="92.082" width="45.635" height="61.0859" rx="22.8175" transform="rotate(94.1032 276.038 92.082)" fill="#4B68F0"/>
<rect x="276.038" y="92.082" width="45.635" height="61.0859" rx="22.8175" transform="rotate(94.1032 276.038 92.082)" fill="black" fill-opacity="0.2"/>
<path d="M218.281 53.9206C214.335 41.6425 197.76 39.7391 191.133 50.803L162.052 99.3545C156.451 108.706 162.379 120.721 173.209 121.964L219.608 127.292C230.438 128.536 238.935 118.178 235.6 107.8L218.281 53.9206Z" fill="#6F86F3"/>
<ellipse cx="115.185" cy="85.0431" rx="115.185" ry="85.0431" transform="matrix(-0.988748 0.14959 0.14959 0.988748 254.588 82.7939)" fill="#2D2D2D"/>
<path d="M152.095 171.748C142.711 209.831 112.724 240.901 72.9041 250.349C96.6638 266.227 130.416 273.57 166.178 268.159C201.988 262.742 232.091 245.705 250.082 223.466C209.598 225.852 172.173 205.101 152.095 171.748Z" fill="white"/>
<path fill-rule="evenodd" clip-rule="evenodd" d="M235.331 223.278C222.021 240.4 199.344 255.599 171.48 264.148C162.612 266.868 153.802 268.736 145.245 269.803C151.893 269.673 158.671 269.106 165.523 268.069C201.333 262.652 231.436 245.614 249.427 223.376C244.678 223.655 239.972 223.618 235.331 223.278Z" fill="white"/>
<path fill-rule="evenodd" clip-rule="evenodd" d="M235.331 223.278C222.021 240.4 199.344 255.599 171.48 264.148C162.612 266.868 153.802 268.736 145.245 269.803C151.893 269.673 158.671 269.106 165.523 268.069C201.333 262.652 231.436 245.614 249.427 223.376C244.678 223.655 239.972 223.618 235.331 223.278Z" fill="black" fill-opacity="0.07"/>
<rect width="60.2837" height="6.46058" rx="3.23029" transform="matrix(-0.968065 -0.250699 -0.302698 0.953087 90.7537 212.09)" fill="white"/>
<rect width="60.2837" height="6.45897" rx="3.22949" transform="matrix(-0.988748 0.14959 0.14959 0.988748 90.7007 211.738)" fill="white"/>
<rect width="60.2837" height="6.46058" rx="3.23029" transform="matrix(0.85058 -0.525846 0.571087 0.82089 220.608 192.445)" fill="white"/>
<rect width="33.7379" height="6.46058" rx="3.23029" transform="matrix(0.85058 -0.525846 0.571087 0.82089 220.608 192.445)" fill="#2D2D2D" fill-opacity="0.12"/>
<rect x="221.031" y="192.021" width="60.2837" height="6.45897" rx="3.22949" transform="rotate(-8.60318 221.031 192.021)" fill="white"/>
<rect x="221.031" y="192.021" width="37.4618" height="6.45897" rx="3.22949" transform="rotate(-8.60318 221.031 192.021)" fill="#2D2D2D" fill-opacity="0.12"/>
<path d="M50.5047 142.728C51.1656 147.097 55.2428 150.102 59.6114 149.441L234.818 122.934C239.186 122.273 242.192 118.196 241.531 113.827L240.121 104.509C239.46 100.14 235.383 97.1344 231.014 97.7954L55.8081 124.303C51.4395 124.964 48.4339 129.041 49.0948 133.409L50.5047 142.728ZM161.847 125.892C162.26 128.622 160.382 131.17 157.652 131.583L135.883 134.877C133.152 135.29 130.604 133.411 130.191 130.681L129.451 125.79C128.79 121.421 131.796 117.344 136.164 116.683L152.001 114.287C156.369 113.626 160.446 116.632 161.107 121L161.847 125.892Z" fill="url(#paint0_linear_32_3334)"/>
<path d="M227.451 83.3303C226.542 77.3236 220.936 73.1908 214.929 74.0996L61.0583 97.3791C55.0516 98.2878 50.9188 103.894 51.8276 109.901L54.0469 124.57L229.67 97.9993L227.451 83.3303Z" fill="#6F86F3"/>
<circle cx="25.8359" cy="25.8359" r="25.8359" transform="matrix(-0.988748 0.14959 0.14959 0.988748 132.094 148.143)" fill="white"/>
<circle cx="15.6092" cy="15.6092" r="15.6092" transform="matrix(-0.988748 0.14959 0.14959 0.988748 132.802 160.012)" fill="black"/>
<ellipse cx="6.43222" cy="4.76992" rx="6.43222" ry="4.76992" transform="matrix(0.493697 -0.869634 -0.869634 -0.493697 113.818 181.253)" fill="white" fill-opacity="0.23"/>
<circle cx="2.15299" cy="2.15299" r="2.15299" transform="matrix(0.493697 -0.869634 -0.869634 -0.493697 128.812 187.418)" fill="white" fill-opacity="0.23"/>
<circle cx="193.436" cy="164.992" r="25.8359" transform="rotate(-8.60318 193.436 164.992)" fill="white"/>
<circle cx="184.63" cy="167.957" r="15.6092" transform="rotate(-8.60318 184.63 167.957)" fill="black"/>
<ellipse cx="189.857" cy="161.652" rx="6.43222" ry="4.76992" transform="rotate(-136.79 189.857 161.652)" fill="white" fill-opacity="0.23"/>
<circle cx="178.685" cy="176.814" r="2.15299" transform="rotate(-136.79 178.685 176.814)" fill="white" fill-opacity="0.23"/>
<path d="M162.61 220.64C161.344 222.968 158.205 223.443 156.306 221.594L146.437 211.982C144.069 209.676 145.361 205.656 148.629 205.161L165.083 202.672C168.351 202.178 170.775 205.635 169.195 208.539L162.61 220.64Z" fill="#FFC8D5"/>
<path d="M200.142 331.918C195.284 322.102 193.201 314.268 193.06 301.932C193.022 298.594 194.657 295.473 197.318 293.457L217.122 278.451C223.295 273.773 232.167 276.803 234.804 284.085C237.507 291.549 240.576 298.12 245.109 306.056C247.298 309.89 247.18 314.696 244.441 318.16C233.647 331.812 224.645 337.172 209.124 337.472C205.312 337.546 201.834 335.335 200.142 331.918Z" fill="#2D2D2D" fill-opacity="0.12"/>
<path d="M202.084 327.002C197.226 317.186 195.143 309.352 195.002 297.016C194.964 293.678 196.598 290.557 199.259 288.541L219.064 273.535C225.237 268.857 234.108 271.887 236.745 279.169C239.448 286.633 242.518 293.204 247.051 301.14C249.24 304.974 249.122 309.78 246.383 313.244C235.589 326.896 226.586 332.256 211.065 332.556C207.254 332.63 203.775 330.419 202.084 327.002Z" fill="white"/>
<path fill-rule="evenodd" clip-rule="evenodd" d="M241.839 291.263C243.336 294.346 245.014 297.503 246.961 300.911C247.8 302.38 248.298 303.991 248.442 305.615L208.574 332.257C205.644 331.637 203.113 329.666 201.747 326.907C200.579 324.549 199.571 322.304 198.71 320.085L241.839 291.263ZM218.873 273.069C223.818 269.323 230.494 270.522 234.308 274.891L194.767 301.314C194.682 299.843 194.629 298.31 194.611 296.701C194.574 293.363 196.209 290.243 198.87 288.227L218.873 273.069Z" fill="#FAF0C3"/>
<path d="M84.337 266.197C74.2901 272.384 73.6866 277.682 75.8431 289.222C76.6197 293.378 79.3612 296.92 83.1552 298.786C150.158 331.735 189.312 326.26 252.913 267.668C256.372 264.481 257.913 259.722 257.308 255.058C255.477 240.939 255.462 231.354 247.281 234.666C246.541 234.966 245.846 235.412 245.201 235.883C187.891 277.733 153.909 284.056 95.0893 265.185C91.5041 264.035 87.543 264.223 84.337 266.197Z" fill="#2D2D2D" fill-opacity="0.12"/>
<path d="M78.7093 257.22C67.9326 263.767 67.3427 269.303 69.6604 281.573C70.4463 285.733 73.1936 289.276 76.9941 291.142C147.089 325.556 187.96 319.85 254.53 258.611C257.996 255.422 259.547 250.654 258.936 245.984C256.99 231.11 257.039 220.975 248.396 224.508C247.659 224.81 246.966 225.253 246.322 225.722C186.421 269.37 150.957 275.929 89.4466 256.221C85.8701 255.076 81.9191 255.269 78.7093 257.22Z" fill="white"/>
<path fill-rule="evenodd" clip-rule="evenodd" d="M146.154 266.796C154.432 266.827 162.47 266.019 170.506 264.322L162.655 311.415C154.79 312.42 146.857 312.445 138.695 311.537L146.154 266.796ZM204.816 296.561C198.322 300.249 191.97 303.261 185.677 305.623L193.791 256.954C200.03 254.346 206.398 251.202 212.996 247.498L204.816 296.561ZM108.94 261.775C114.265 263.076 119.407 264.132 124.409 264.934L117.354 307.247C112.431 305.851 107.389 304.169 102.199 302.205L108.94 261.775ZM248.397 224.509C251.448 223.262 253.414 223.719 254.769 225.486L248.308 264.238C241.879 269.949 235.685 275.122 229.672 279.771L237.654 231.894C240.488 229.925 243.376 227.87 246.322 225.723C246.966 225.254 247.659 224.811 248.397 224.509ZM78.7094 257.22C81.4556 255.552 84.7445 255.17 87.8772 255.812L81.6153 293.372C80.089 292.649 78.5486 291.906 76.9942 291.142C73.1939 289.277 70.4468 285.734 69.6609 281.574C67.3431 269.304 67.9327 263.768 78.7094 257.22Z" fill="#FAF0C3"/>
<g opacity="0.1">
<path d="M295.07 259.708L255.706 300.583C240.825 280.914 231.819 270.631 208.215 260.735L252.956 214.277C264.494 236.882 275.395 245.02 294.553 259.322L295.07 259.708Z" fill="black"/>
<path d="M212.58 256.203C212.732 256.386 212.888 256.568 213.049 256.746C221.054 265.534 238.018 263.121 250.937 251.353C257.542 245.338 261.809 238.042 263.335 231.174C268.897 238.537 274.895 244.095 282.227 249.933C276.83 256.899 273.945 263.486 275.741 264.936C277.551 266.396 283.452 262.111 289.159 255.277C290.884 256.578 292.679 257.922 294.554 259.322L295.07 259.708L255.706 300.582C250.776 294.066 246.488 288.582 242.103 283.799C249.418 276.585 253.693 269.607 251.84 267.573C249.948 265.496 242.335 269.297 234.288 276.172C227.441 270.283 219.495 265.465 208.215 260.735L212.58 256.203Z" fill="black"/>
<path fill-rule="evenodd" clip-rule="evenodd" d="M181.327 212.877C184.065 207.457 191.285 205.274 199.2 206.818C197.883 199.503 199.87 192.879 204.869 190.112C210.245 187.138 217.549 189.483 223.253 195.364C224.407 192.324 226.384 189.953 229.108 188.702C236.423 185.344 246.355 191.338 251.292 202.091C255.801 211.912 254.582 222.305 248.764 226.591L220.056 256.401C215.992 262.376 205.652 263.985 195.669 259.849C184.737 255.32 178.373 245.621 181.454 238.185C182.651 235.295 185.098 233.172 188.285 231.922C181.475 226.355 178.408 218.657 181.327 212.877Z" fill="black"/>
<path d="M217.429 223.143C222.456 217.924 231.242 218.135 237.571 223.433C241.822 221.394 246.653 221.764 249.785 224.779C254.015 228.853 253.541 236.207 248.727 241.206C246.352 243.672 243.364 245.102 240.438 245.431C240.418 245.452 240.397 245.473 240.376 245.494C240.158 248.431 238.843 251.472 236.467 253.938C231.653 258.937 224.322 259.687 220.092 255.613C216.894 252.533 216.386 247.578 218.409 243.183C212.941 237.061 212.424 228.341 217.429 223.143Z" fill="black"/>
<path opacity="0.5" d="M222.013 228.01C225.577 224.308 231.806 224.459 236.295 228.216C239.311 226.768 242.739 227.031 244.961 229.17C247.961 232.059 247.625 237.275 244.211 240.821C242.526 242.57 240.406 243.585 238.33 243.818C238.316 243.832 238.302 243.845 238.289 243.859C238.135 245.943 237.201 248.101 235.516 249.851C232.101 253.396 226.901 253.929 223.901 251.039C221.632 248.854 221.273 245.339 222.708 242.221C218.83 237.88 218.463 231.696 222.013 228.01Z" fill="black"/>
<ellipse cx="196.408" cy="245.063" rx="7.84927" ry="11.2132" transform="rotate(-62.0841 196.408 245.063)" fill="black"/>
<ellipse cx="194.917" cy="220.56" rx="7.84927" ry="11.2132" transform="rotate(-62.0841 194.917 220.56)" fill="black"/>
<ellipse cx="7.84927" cy="11.2132" rx="7.84927" ry="11.2132" transform="matrix(-0.865386 0.501106 0.501106 0.865386 213.503 190.103)" fill="black"/>
<ellipse cx="7.84927" cy="11.2132" rx="7.84927" ry="11.2132" transform="matrix(-0.865386 0.501106 0.501106 0.865386 237.82 189.645)" fill="black"/>
<ellipse opacity="0.5" cx="197.242" cy="244.115" rx="4.55001" ry="7.1094" transform="rotate(-62.7804 197.242 244.115)" fill="black"/>
<ellipse opacity="0.5" cx="196.818" cy="221.597" rx="4.55001" ry="7.1094" transform="rotate(-62.7804 196.818 221.597)" fill="black"/>
<ellipse opacity="0.5" cx="4.55001" cy="7.1094" rx="4.55001" ry="7.1094" transform="matrix(-0.871412 0.490553 0.490553 0.871412 213.486 197.179)" fill="black"/>
<ellipse opacity="0.5" cx="4.55001" cy="7.1094" rx="4.55001" ry="7.1094" transform="matrix(-0.871412 0.490553 0.490553 0.871412 236.792 195.935)" fill="black"/>
</g>
<path d="M304.711 255.537L263.774 298.043C248.299 277.589 238.935 266.895 214.388 256.604L260.917 208.292C272.915 231.8 284.25 240.262 304.173 255.136L304.711 255.537Z" fill="white"/>
<path d="M218.927 251.891C219.086 252.082 219.248 252.272 219.417 252.457C227.741 261.597 245.381 259.086 258.817 246.85C265.684 240.595 270.122 233.009 271.71 225.867C277.494 233.523 283.732 239.302 291.356 245.373C285.743 252.617 282.742 259.467 284.61 260.975C286.493 262.493 292.629 258.037 298.563 250.931C300.357 252.284 302.224 253.68 304.174 255.136L304.711 255.537L263.774 298.043C258.648 291.267 254.19 285.563 249.631 280.589C257.237 273.087 261.682 265.832 259.755 263.716C257.788 261.557 249.87 265.508 241.502 272.657C234.382 266.533 226.119 261.522 214.389 256.604L218.927 251.891Z" fill="#2D2D2D"/>
<path fill-rule="evenodd" clip-rule="evenodd" d="M186.429 206.834C189.277 201.199 196.784 198.928 205.015 200.534C203.646 192.928 205.712 186.039 210.911 183.163C216.502 180.069 224.097 182.508 230.029 188.624C231.229 185.463 233.284 182.997 236.117 181.696C243.724 178.204 254.052 184.438 259.186 195.62C263.876 205.835 262.608 216.645 256.555 221.101L226.705 252.095C222.479 258.311 211.725 259.985 201.341 255.683C189.974 250.973 183.356 240.886 186.559 233.153C187.805 230.148 190.351 227.941 193.665 226.641C186.583 220.852 183.393 212.845 186.429 206.834Z" fill="white"/>
<mask id="path-48-outside-1_32_3334" maskUnits="userSpaceOnUse" x="205.605" y="198.407" width="63.522" height="63.7347" fill="black">
<rect fill="white" x="205.605" y="198.407" width="63.522" height="63.7347"/>
<path d="M223.972 217.512C229.2 212.085 238.334 212.305 244.916 217.815C249.338 215.694 254.362 216.078 257.619 219.215C262.018 223.451 261.525 231.098 256.518 236.297C254.049 238.861 250.941 240.348 247.899 240.69C247.877 240.712 247.856 240.734 247.834 240.756C247.607 243.809 246.238 246.971 243.768 249.536C238.762 254.734 231.138 255.514 226.739 251.278C223.414 248.075 222.886 242.922 224.989 238.352C219.303 231.985 218.767 222.917 223.972 217.512Z"/>
</mask>
<path d="M223.972 217.512C229.2 212.085 238.334 212.305 244.916 217.815C249.338 215.694 254.362 216.078 257.619 219.215C262.018 223.451 261.525 231.098 256.518 236.297C254.049 238.861 250.941 240.348 247.899 240.69C247.877 240.712 247.856 240.734 247.834 240.756C247.607 243.809 246.238 246.971 243.768 249.536C238.762 254.734 231.138 255.514 226.739 251.278C223.414 248.075 222.886 242.922 224.989 238.352C219.303 231.985 218.767 222.917 223.972 217.512Z" fill="#F7BCCE"/>
<path d="M223.972 217.512L222.532 216.125L222.532 216.125L223.972 217.512ZM244.916 217.815L243.632 219.348L244.62 220.175L245.781 219.618L244.916 217.815ZM257.619 219.215L259.007 217.774L259.007 217.774L257.619 219.215ZM256.518 236.297L257.959 237.684L257.959 237.684L256.518 236.297ZM247.899 240.69L247.675 238.702L246.967 238.782L246.469 239.291L247.899 240.69ZM247.834 240.756L246.414 239.347L245.894 239.871L245.839 240.608L247.834 240.756ZM243.768 249.536L245.208 250.923L245.208 250.923L243.768 249.536ZM226.739 251.278L225.352 252.719L225.352 252.719L226.739 251.278ZM224.989 238.352L226.806 239.188L227.354 237.997L226.481 237.019L224.989 238.352ZM223.972 217.512L225.413 218.9C229.739 214.408 237.65 214.341 243.632 219.348L244.916 217.815L246.2 216.281C239.018 210.27 228.66 209.762 222.532 216.125L223.972 217.512ZM244.916 217.815L245.781 219.618C249.631 217.771 253.709 218.226 256.232 220.655L257.619 219.215L259.007 217.774C255.016 213.93 249.045 213.616 244.051 216.011L244.916 217.815ZM257.619 219.215L256.232 220.655C259.618 223.917 259.544 230.272 255.078 234.909L256.518 236.297L257.959 237.684C263.505 231.925 264.417 222.985 259.007 217.774L257.619 219.215ZM256.518 236.297L255.078 234.909C252.918 237.152 250.236 238.414 247.675 238.702L247.899 240.69L248.122 242.677C251.647 242.281 255.179 240.571 257.959 237.684L256.518 236.297ZM247.899 240.69L246.469 239.291C246.448 239.313 246.431 239.33 246.414 239.347L247.834 240.756L249.253 242.165C249.28 242.137 249.306 242.111 249.329 242.088L247.899 240.69ZM247.834 240.756L245.839 240.608C245.648 243.178 244.487 245.906 242.327 248.149L243.768 249.536L245.208 250.923C247.989 248.036 249.565 244.441 249.828 240.904L247.834 240.756ZM243.768 249.536L242.327 248.149C237.861 252.786 231.513 253.099 228.127 249.838L226.739 251.278L225.352 252.719C230.762 257.929 239.662 256.682 245.208 250.923L243.768 249.536ZM226.739 251.278L228.127 249.838C225.552 247.358 224.971 243.174 226.806 239.188L224.989 238.352L223.173 237.515C220.8 242.67 221.276 248.793 225.352 252.719L226.739 251.278ZM224.989 238.352L226.481 237.019C221.314 231.235 221.105 223.373 225.413 218.9L223.972 217.512L222.532 216.125C216.429 222.461 217.292 232.736 223.498 239.684L224.989 238.352Z" fill="#FFA9C3" fill-opacity="0.1" mask="url(#path-48-outside-1_32_3334)"/>
<path opacity="0.5" d="M227.953 221.452C231.661 217.602 238.139 217.76 242.808 221.669C245.944 220.164 249.508 220.436 251.819 222.661C254.938 225.666 254.588 231.09 251.037 234.777C249.285 236.596 247.08 237.651 244.922 237.893C244.907 237.908 244.893 237.922 244.878 237.937C244.718 240.103 243.748 242.347 241.995 244.167C238.444 247.854 233.036 248.407 229.917 245.402C227.557 243.13 227.183 239.474 228.676 236.233C224.642 231.717 224.261 225.286 227.953 221.452Z" fill="white" fill-opacity="0.68"/>
<ellipse cx="202.111" cy="240.306" rx="8.16258" ry="11.6608" transform="rotate(-62.0828 202.111 240.306)" fill="#F7BCCE"/>
<path d="M192.691 235.316C193.552 233.691 195.319 232.628 197.651 232.338C199.98 232.049 202.779 232.554 205.465 233.978C208.151 235.401 210.141 237.433 211.209 239.522C212.28 241.615 212.392 243.674 211.531 245.298C210.67 246.922 208.904 247.985 206.572 248.275C204.243 248.564 201.444 248.059 198.758 246.636C196.072 245.212 194.083 243.18 193.014 241.091C191.943 238.998 191.831 236.94 192.691 235.316Z" stroke="#FFA9C3" stroke-opacity="0.1" stroke-width="2"/>
<ellipse cx="200.561" cy="214.825" rx="8.16258" ry="11.6608" transform="rotate(-62.0828 200.561 214.825)" fill="#F7BCCE"/>
<path d="M191.141 209.834C192.001 208.21 193.768 207.146 196.101 206.857C198.43 206.568 201.229 207.073 203.915 208.496C206.601 209.919 208.59 211.951 209.659 214.041C210.73 216.134 210.841 218.192 209.981 219.817C209.12 221.441 207.354 222.504 205.021 222.793C202.693 223.082 199.894 222.577 197.208 221.154C194.522 219.731 192.532 217.699 191.463 215.609C190.393 213.517 190.28 211.458 191.141 209.834Z" stroke="#FFA9C3" stroke-opacity="0.1" stroke-width="2"/>
<ellipse cx="8.16258" cy="11.6608" rx="8.16258" ry="11.6608" transform="matrix(-0.865398 0.501086 0.501086 0.865398 219.889 183.152)" fill="#F7BCCE"/>
<path d="M213.327 188.108C211.736 189.029 210.74 190.834 210.538 193.176C210.337 195.515 210.947 198.292 212.47 200.923C213.993 203.554 216.099 205.466 218.227 206.455C220.358 207.446 222.42 207.48 224.01 206.559C225.601 205.638 226.597 203.833 226.799 201.492C227 199.153 226.39 196.376 224.867 193.745C223.344 191.114 221.238 189.203 219.11 188.213C216.979 187.222 214.917 187.187 213.327 188.108Z" stroke="#FFA9C3" stroke-opacity="0.1" stroke-width="2"/>
<ellipse cx="8.16258" cy="11.6608" rx="8.16258" ry="11.6608" transform="matrix(-0.865398 0.501086 0.501086 0.865398 245.177 182.677)" fill="#F7BCCE"/>
<path d="M238.614 187.632C237.024 188.553 236.027 190.359 235.826 192.701C235.625 195.039 236.234 197.817 237.757 200.448C239.281 203.078 241.386 204.99 243.514 205.979C245.646 206.97 247.707 207.005 249.298 206.083C250.889 205.162 251.885 203.358 252.086 201.016C252.288 198.678 251.678 195.9 250.154 193.269C248.631 190.639 246.526 188.727 244.398 187.738C242.266 186.747 240.205 186.711 238.614 187.632Z" stroke="#FFA9C3" stroke-opacity="0.1" stroke-width="2"/>
<ellipse opacity="0.5" cx="202.978" cy="239.321" rx="4.73163" ry="7.39318" transform="rotate(-62.7791 202.978 239.321)" fill="white" fill-opacity="0.68"/>
<ellipse opacity="0.5" cx="202.538" cy="215.905" rx="4.73163" ry="7.39318" transform="rotate(-62.7791 202.538 215.905)" fill="white" fill-opacity="0.68"/>
<ellipse opacity="0.5" cx="4.73163" cy="7.39318" rx="4.73163" ry="7.39318" transform="matrix(-0.871423 0.490532 0.490532 0.871423 219.872 190.51)" fill="white" fill-opacity="0.68"/>
<ellipse opacity="0.5" cx="4.73163" cy="7.39318" rx="4.73163" ry="7.39318" transform="matrix(-0.871423 0.490532 0.490532 0.871423 244.109 189.219)" fill="white" fill-opacity="0.68"/>
<defs>
<linearGradient id="paint0_linear_32_3334" x1="50.3714" y1="131.172" x2="96.6729" y2="132.554" gradientUnits="userSpaceOnUse">
<stop stop-color="#2B3C8A"/>
<stop offset="1" stop-color="#4B68F0"/>
</linearGradient>
</defs>
</svg>
