<svg width="268" height="237" viewBox="0 0 268 237" fill="none" xmlns="http://www.w3.org/2000/svg">
<path d="M133.732 133.225C141.713 127.188 153.237 132.054 154.475 141.985L158.07 170.82C159.308 180.75 149.331 188.297 140.112 184.404L113.343 173.1C104.124 169.206 102.577 156.793 110.558 150.756L133.732 133.225Z" fill="#ADADAD" fill-opacity="0.2"/>
<path d="M145.302 131.035C153.229 124.928 164.796 129.693 166.121 139.612L169.97 168.414C171.295 178.333 161.385 185.967 152.132 182.156L125.265 171.087C116.012 167.276 114.355 154.877 122.283 148.769L145.302 131.035Z" fill="#EDC61B"/>
<rect x="160" y="141.566" width="3.89687" height="9.92391" rx="1.94844" transform="rotate(-8.3613 160 141.566)" fill="white"/>
<rect x="157" y="135.066" width="3.89687" height="3.86216" rx="1.93108" transform="rotate(-15.8721 157 135.066)" fill="white"/>
<path d="M54.3019 155.035C62.2295 148.928 73.7958 153.693 75.1212 163.612L78.9697 192.414C80.2951 202.333 70.3855 209.967 61.1325 206.156L34.265 195.087C25.012 191.276 23.3552 178.877 31.2829 172.769L54.3019 155.035Z" fill="#ADADAD" fill-opacity="0.2"/>
<path d="M65.3019 151.035C73.2295 144.928 84.7958 149.693 86.1212 159.612L89.9697 188.414C91.2951 198.333 81.3855 205.967 72.1325 202.156L45.265 191.087C36.012 187.276 34.3552 174.877 42.2829 168.769L65.3019 151.035Z" fill="#EDC61B"/>
<rect x="80.0001" y="162.566" width="3.89687" height="9.92391" rx="1.94844" transform="rotate(-8.3613 80.0001 162.566)" fill="white"/>
<rect x="77.0001" y="156.066" width="3.89687" height="3.86216" rx="1.93108" transform="rotate(-15.8721 77.0001 156.066)" fill="white"/>
<path fill-rule="evenodd" clip-rule="evenodd" d="M147.695 3.47148C153.58 -1.34112 161.745 0.0585959 166.037 5.33882C165.94 5.33966 165.843 5.34154 165.745 5.34438C158.017 5.56899 151.933 12.0159 152.158 19.7442C152.332 25.7578 156.275 30.7749 161.657 32.5996C161.387 33.7554 161.259 34.9648 161.295 36.2074C161.513 43.7071 167.591 49.6566 175.013 49.797C176.399 59.542 166.813 67.2772 157.542 63.7694L121.459 50.1176C112.099 46.5763 110.082 34.2305 117.829 27.8953L147.695 3.47148Z" fill="#ADADAD" fill-opacity="0.2"/>
<path fill-rule="evenodd" clip-rule="evenodd" d="M154.934 4.71597C159.677 1.0624 165.721 1.30038 170.096 4.20425C166.552 6.59351 164.222 10.6457 164.222 15.2414C164.223 20.5359 167.316 25.1069 171.795 27.2472C171.054 28.9033 170.643 30.7388 170.643 32.6701C170.643 38.6579 174.6 43.7205 180.042 45.3878L180.31 47.3947C181.636 57.3139 171.726 64.9486 162.473 61.1369L130.662 48.0314C121.409 44.2196 119.752 31.8205 127.679 25.713L154.934 4.71597Z" fill="#EDC61B"/>
<path fill-rule="evenodd" clip-rule="evenodd" d="M234.68 75.2358C232.643 68.2801 225.707 64.8114 219.41 66.1763C225.168 70.5702 226.386 78.7824 222.101 84.6666C218.719 89.3091 212.907 91.1335 207.684 89.6678C207.274 90.7247 206.722 91.7471 206.023 92.7068C201.817 98.481 193.851 99.8966 187.934 96.0426C182.181 103.336 185.801 114.419 195.103 116.683L228.908 124.911C238.632 127.277 247.27 118.23 244.458 108.626L234.68 75.2358Z" fill="#ADADAD" fill-opacity="0.2"/>
<path fill-rule="evenodd" clip-rule="evenodd" d="M239.883 79.1315C237.856 72.2106 230.978 68.741 224.707 70.0509C230.392 74.4329 231.585 82.5739 227.332 88.4122C223.967 93.0324 218.184 94.8483 212.986 93.3897C212.578 94.4412 212.028 95.458 211.333 96.4128C207.149 102.157 199.227 103.567 193.339 99.7379C187.676 107.032 191.304 118.044 200.571 120.299L234.001 128.434C243.725 130.801 252.364 121.754 249.552 112.15L239.883 79.1315Z" fill="#EDC61B"/>
<rect x="234.023" y="82.0654" width="3.89687" height="9.92391" rx="1.94844" transform="rotate(-15.8721 234.023 82.0654)" fill="white"/>
<rect x="232" y="77.0654" width="3.89687" height="3.86216" rx="1.93108" transform="rotate(-15.8721 232 77.0654)" fill="white"/>
<path opacity="0.2" d="M213.287 74.1135C214.816 76.1009 213.606 78.1215 212.278 79.8108C211.539 80.7548 210.8 81.6823 210.043 82.5932C209.457 83.3901 208.707 84.0561 207.842 84.5475C206.831 84.9489 205.733 85.0865 204.652 84.9473C203.572 84.808 202.546 84.3965 201.674 83.7525C200.762 83.3025 200.017 82.5797 199.546 81.6873C199.075 80.795 198.902 79.7788 199.053 78.7839C199.028 78.4974 199.028 78.2093 199.053 77.9227C199.383 76.9412 199.84 76.0059 200.414 75.1403C200.702 74.6897 200.917 74.1981 201.053 73.6828C201.131 73.09 201.159 72.4917 201.137 71.8942C201.19 70.9544 201.565 70.0601 202.2 69.3566C202.834 68.653 203.691 68.1815 204.632 68.0187C205.528 67.9452 206.429 68.0894 207.255 68.4388C208.081 68.7882 208.808 69.332 209.371 70.0227C210.01 70.6686 210.564 71.3807 211.186 72.0432C211.93 72.6884 212.632 73.3799 213.287 74.1135Z" fill="black"/>
<path opacity="0.2" d="M243.518 65.6347C242.637 65.9085 241.722 66.0229 240.807 65.9736C240.542 66.0212 240.27 66.0043 240.011 65.9242C239.752 65.8442 239.512 65.7028 239.307 65.5099C238.979 65.0942 238.732 64.6086 238.581 64.0831C238.204 63.1827 238.006 62.2036 238 61.2117C237.996 60.3235 238.257 59.4586 238.742 58.7504C238.954 58.4367 239.226 58.1783 239.538 57.9934C239.85 57.8085 240.196 57.7016 240.549 57.6803C240.59 57.5608 240.653 57.4517 240.734 57.3598C240.814 57.2678 240.91 57.1948 241.017 57.1453C241.475 56.9754 241.968 56.954 242.437 57.0836C242.906 57.2132 243.331 57.4883 243.663 57.8765C244.343 58.7048 244.757 59.758 244.841 60.8728C245.099 62.5671 245.26 64.85 243.518 65.6347Z" fill="black"/>
<path opacity="0.2" d="M196.763 2.75658C197.502 3.57414 197.937 4.65557 197.987 5.79624C198.068 6.9334 197.777 8.06539 197.165 8.99463C196.552 9.92387 195.657 10.5913 194.635 10.8805C194.12 11.0176 193.584 11.037 193.062 10.9373C192.539 10.8376 192.042 10.621 191.602 10.3015C191.187 10.01 190.834 9.62724 190.565 9.17828C190.297 8.72932 190.119 8.22425 190.043 7.69605C189.97 7.24794 189.99 6.78768 190.103 6.34926C190.216 5.91084 190.419 5.50546 190.697 5.16299C190.934 4.85538 191.217 4.59246 191.535 4.38497C191.777 4.25885 192.03 4.15593 192.289 4.07738C192.696 3.33038 193.273 2.70769 193.965 2.26805C194.421 2.02837 194.935 1.94666 195.436 2.0341C195.936 2.12154 196.4 2.37387 196.763 2.75658Z" fill="black"/>
<path opacity="0.2" d="M258.402 58.1014C258.185 57.834 258.05 57.5215 258.012 57.1944C257.973 56.8674 258.032 56.5371 258.182 56.2361C258.27 56.1089 258.379 55.9933 258.504 55.8929C258.569 55.8031 258.649 55.7226 258.742 55.6541C258.964 55.4887 259.225 55.3667 259.505 55.2959H259.607C259.764 55.0159 259.983 54.7662 260.251 54.5613C260.518 54.3563 260.83 54.2003 261.167 54.1021C261.536 53.9913 261.933 53.9702 262.315 54.0411C262.697 54.112 263.05 54.2723 263.338 54.505C263.622 54.7565 263.826 55.0702 263.927 55.4137C264.028 55.7573 264.024 56.1184 263.914 56.4599C263.711 57.1367 263.276 57.7425 262.67 58.1959C262.064 58.6494 261.314 58.9288 260.522 58.9968C260.112 59.0166 259.702 58.9449 259.332 58.7884C258.961 58.6319 258.642 58.3956 258.402 58.1014Z" fill="black"/>
<path opacity="0.2" d="M209.977 21.3339C209.867 22.1023 209.52 22.809 208.992 23.3411C208.706 23.7033 208.304 23.9382 207.865 24C207.638 23.9971 207.416 23.9304 207.22 23.8068C207.025 23.6831 206.863 23.5067 206.751 23.2952C206.751 23.2952 206.637 23.0806 206.58 23.004C206.337 22.8661 206.095 22.7742 205.866 22.621C205.532 22.3989 205.268 22.0729 205.11 21.6863C205.003 21.378 204.974 21.0452 205.024 20.7209C205.044 20.3946 205.156 20.0825 205.345 19.8255C205.533 19.5686 205.79 19.3786 206.08 19.2806C206.103 19.175 206.137 19.0722 206.18 18.9742C206.36 18.6498 206.621 18.387 206.935 18.2161C207.248 18.0452 207.6 17.9733 207.95 18.0089C208.601 18.2143 209.163 18.6616 209.534 19.2709C209.905 19.8802 210.063 20.6115 209.977 21.3339Z" fill="black"/>
<path d="M217.287 72.1135C218.816 74.1009 217.606 76.1215 216.278 77.8108C215.539 78.7548 214.8 79.6823 214.043 80.5932C213.457 81.3901 212.707 82.0561 211.842 82.5475C210.831 82.9489 209.733 83.0865 208.652 82.9473C207.572 82.808 206.546 82.3965 205.674 81.7525C204.762 81.3025 204.017 80.5797 203.546 79.6873C203.075 78.795 202.902 77.7788 203.053 76.7839C203.028 76.4974 203.028 76.2093 203.053 75.9227C203.383 74.9412 203.84 74.0059 204.414 73.1403C204.702 72.6897 204.917 72.1981 205.053 71.6828C205.131 71.09 205.159 70.4917 205.137 69.8942C205.19 68.9544 205.565 68.0601 206.2 67.3566C206.834 66.653 207.691 66.1815 208.632 66.0187C209.528 65.9452 210.429 66.0894 211.255 66.4388C212.081 66.7882 212.808 67.332 213.371 68.0227C214.01 68.6686 214.564 69.3807 215.186 70.0432C215.93 70.6884 216.632 71.3799 217.287 72.1135Z" fill="#EDC61B"/>
<path d="M247.518 63.6347C246.637 63.9085 245.722 64.0229 244.807 63.9736C244.542 64.0212 244.27 64.0043 244.011 63.9242C243.752 63.8442 243.512 63.7028 243.307 63.5099C242.979 63.0942 242.732 62.6086 242.581 62.0831C242.204 61.1827 242.006 60.2036 242 59.2117C241.996 58.3235 242.257 57.4586 242.742 56.7504C242.954 56.4367 243.226 56.1783 243.538 55.9934C243.85 55.8085 244.196 55.7016 244.549 55.6803C244.59 55.5608 244.653 55.4517 244.734 55.3598C244.814 55.2678 244.91 55.1948 245.017 55.1453C245.475 54.9754 245.968 54.954 246.437 55.0836C246.906 55.2132 247.331 55.4883 247.663 55.8765C248.343 56.7048 248.757 57.758 248.841 58.8728C249.099 60.5671 249.26 62.85 247.518 63.6347Z" fill="#EDC61B"/>
<path d="M200.763 0.756576C201.502 1.57414 201.937 2.65557 201.987 3.79624C202.068 4.9334 201.777 6.06539 201.165 6.99463C200.552 7.92387 199.657 8.59132 198.635 8.88047C198.12 9.01763 197.584 9.037 197.062 8.93728C196.539 8.83757 196.042 8.62101 195.602 8.30149C195.187 8.00998 194.834 7.62724 194.565 7.17828C194.297 6.72932 194.119 6.22425 194.043 5.69605C193.97 5.24794 193.99 4.78768 194.103 4.34926C194.216 3.91084 194.419 3.50546 194.697 3.16299C194.934 2.85538 195.217 2.59246 195.535 2.38497C195.777 2.25885 196.03 2.15593 196.289 2.07738C196.696 1.33038 197.273 0.707686 197.965 0.268048C198.421 0.0283671 198.935 -0.0533436 199.436 0.0340959C199.936 0.121535 200.4 0.373867 200.763 0.756576Z" fill="#EDC61B"/>
<path d="M262.402 56.1014C262.185 55.834 262.05 55.5215 262.012 55.1944C261.973 54.8674 262.032 54.5371 262.182 54.2361C262.27 54.1089 262.379 53.9933 262.504 53.8929C262.569 53.8031 262.649 53.7226 262.742 53.6541C262.964 53.4887 263.225 53.3667 263.505 53.2959H263.607C263.764 53.0159 263.983 52.7662 264.251 52.5613C264.518 52.3563 264.83 52.2003 265.167 52.1021C265.536 51.9913 265.933 51.9702 266.315 52.0411C266.697 52.112 267.05 52.2723 267.338 52.505C267.622 52.7565 267.826 53.0702 267.927 53.4137C268.028 53.7573 268.024 54.1184 267.914 54.4599C267.711 55.1367 267.276 55.7425 266.67 56.1959C266.064 56.6494 265.314 56.9288 264.522 56.9968C264.112 57.0166 263.702 56.9449 263.332 56.7884C262.961 56.6319 262.642 56.3956 262.402 56.1014Z" fill="#EDC61B"/>
<path d="M213.977 19.3339C213.867 20.1023 213.52 20.809 212.992 21.3411C212.706 21.7033 212.304 21.9382 211.865 22C211.638 21.9971 211.416 21.9304 211.22 21.8068C211.025 21.6831 210.863 21.5067 210.751 21.2952C210.751 21.2952 210.637 21.0806 210.58 21.004C210.337 20.8661 210.095 20.7742 209.866 20.621C209.532 20.3989 209.268 20.0729 209.11 19.6863C209.003 19.378 208.974 19.0452 209.024 18.7209C209.044 18.3946 209.156 18.0825 209.345 17.8255C209.533 17.5686 209.79 17.3786 210.08 17.2806C210.103 17.175 210.137 17.0722 210.18 16.9742C210.36 16.6498 210.621 16.387 210.935 16.2161C211.248 16.0452 211.6 15.9733 211.95 16.0089C212.601 16.2143 213.163 16.6616 213.534 17.2709C213.905 17.8802 214.063 18.6115 213.977 19.3339Z" fill="#EDC61B"/>
<path opacity="0.2" d="M183.476 35.0442C182.456 33.7582 183.263 32.4508 184.148 31.3577C184.641 30.7469 185.134 30.1468 185.638 29.5574C186.028 29.0417 186.529 28.6108 187.105 28.2928C187.779 28.0331 188.512 27.944 189.232 28.0341C189.952 28.1242 190.636 28.3905 191.217 28.8072C191.826 29.0984 192.322 29.5661 192.636 30.1435C192.95 30.7209 193.065 31.3784 192.965 32.0222C192.982 32.2076 192.982 32.394 192.965 32.5794C192.745 33.2145 192.44 33.8197 192.057 34.3798C191.866 34.6714 191.722 34.9895 191.632 35.3229C191.579 35.7065 191.56 36.0936 191.576 36.4802C191.54 37.0884 191.29 37.667 190.867 38.1222C190.444 38.5775 189.872 38.8825 189.245 38.9879C188.648 39.0355 188.048 38.9422 187.497 38.7161C186.946 38.49 186.461 38.1381 186.086 37.6912C185.66 37.2733 185.29 36.8125 184.876 36.3838C184.38 35.9663 183.912 35.5189 183.476 35.0442Z" fill="black"/>
<path opacity="0.2" d="M147.059 94.2029C147.688 94.0508 148.342 93.9873 148.995 94.0147C149.184 93.9882 149.378 93.9976 149.564 94.0421C149.749 94.0866 149.92 94.1651 150.066 94.2723C150.301 94.5032 150.477 94.773 150.585 95.065C150.854 95.5652 150.996 96.1091 151 96.6602C151.003 97.1536 150.816 97.6341 150.47 98.0275C150.318 98.2018 150.124 98.3454 149.901 98.4481C149.678 98.5508 149.432 98.6102 149.179 98.6221C149.15 98.6885 149.105 98.749 149.047 98.8001C148.99 98.8512 148.921 98.8918 148.845 98.9193C148.518 99.0137 148.166 99.0255 147.831 98.9535C147.496 98.8816 147.192 98.7287 146.955 98.5131C146.469 98.0529 146.173 97.4678 146.114 96.8485C145.929 95.9072 145.814 94.6389 147.059 94.2029Z" fill="black"/>
<path opacity="0.2" d="M191.773 147.496C191.311 146.951 191.039 146.23 191.008 145.469C190.957 144.711 191.139 143.956 191.522 143.337C191.905 142.717 192.464 142.272 193.103 142.08C193.425 141.988 193.76 141.975 194.086 142.042C194.413 142.108 194.724 142.253 194.999 142.466C195.258 142.66 195.479 142.915 195.647 143.214C195.815 143.514 195.926 143.851 195.973 144.203C196.019 144.501 196.006 144.808 195.935 145.1C195.865 145.393 195.738 145.663 195.564 145.891C195.416 146.096 195.239 146.272 195.041 146.41C194.889 146.494 194.731 146.563 194.569 146.615C194.315 147.113 193.955 147.528 193.522 147.821C193.237 147.981 192.916 148.036 192.603 147.977C192.29 147.919 192 147.751 191.773 147.496Z" fill="black"/>
<path opacity="0.2" d="M137.732 98.5391C137.877 98.6996 137.967 98.8871 137.992 99.0833C138.018 99.2796 137.979 99.4777 137.879 99.6584C137.82 99.7347 137.747 99.804 137.664 99.8643C137.621 99.9181 137.567 99.9665 137.506 100.008C137.357 100.107 137.184 100.18 136.997 100.222H136.929C136.824 100.39 136.678 100.54 136.5 100.663C136.321 100.786 136.113 100.88 135.889 100.939C135.642 101.005 135.378 101.018 135.123 100.975C134.869 100.933 134.633 100.837 134.442 100.697C134.252 100.546 134.116 100.358 134.049 100.152C133.981 99.9456 133.984 99.729 134.057 99.5241C134.193 99.118 134.482 98.7545 134.887 98.4824C135.291 98.2104 135.79 98.0427 136.318 98.0019C136.592 97.9901 136.865 98.033 137.112 98.127C137.359 98.2209 137.572 98.3626 137.732 98.5391Z" fill="black"/>
<path opacity="0.2" d="M183.014 134.777C183.08 134.265 183.288 133.794 183.605 133.439C183.777 133.198 184.018 133.041 184.281 133C184.417 133.002 184.551 133.046 184.668 133.129C184.785 133.211 184.882 133.329 184.949 133.47C184.949 133.47 185.018 133.613 185.052 133.664C185.198 133.756 185.343 133.817 185.48 133.919C185.681 134.067 185.839 134.285 185.934 134.542C185.998 134.748 186.016 134.97 185.986 135.186C185.973 135.404 185.906 135.612 185.793 135.783C185.68 135.954 185.526 136.081 185.352 136.146C185.338 136.217 185.318 136.285 185.292 136.351C185.184 136.567 185.027 136.742 184.839 136.856C184.651 136.97 184.44 137.018 184.23 136.994C183.839 136.857 183.502 136.559 183.28 136.153C183.057 135.747 182.962 135.259 183.014 134.777Z" fill="black"/>
<path d="M180.476 36.6846C179.456 35.2817 180.263 33.8554 181.148 32.663C181.641 31.9966 182.134 31.3419 182.638 30.6989C183.028 30.1364 183.529 29.6663 184.105 29.3194C184.779 29.0361 185.512 28.9389 186.232 29.0372C186.952 29.1355 187.636 29.426 188.217 29.8806C188.826 30.1982 189.322 30.7084 189.636 31.3383C189.95 31.9682 190.065 32.6856 189.965 33.3878C189.982 33.5901 189.982 33.7935 189.965 33.9957C189.745 34.6886 189.44 35.3488 189.057 35.9598C188.866 36.2779 188.722 36.6249 188.632 36.9886C188.579 37.4071 188.56 37.8294 188.576 38.2512C188.54 38.9146 188.29 39.5458 187.867 40.0424C187.444 40.539 186.872 40.8719 186.245 40.9868C185.648 41.0387 185.048 40.9369 184.497 40.6903C183.946 40.4436 183.461 40.0597 183.086 39.5722C182.66 39.1163 182.29 38.6136 181.876 38.146C181.38 37.6905 180.912 37.2024 180.476 36.6846Z" fill="#EDC61B"/>
<path d="M144.847 95.2435C145.35 95.061 145.873 94.9847 146.396 95.0176C146.548 94.9859 146.703 94.9971 146.851 95.0505C146.999 95.1039 147.136 95.1981 147.253 95.3268C147.44 95.6039 147.582 95.9276 147.668 96.2779C147.883 96.8782 147.996 97.5309 148 98.1922C148.002 98.7844 147.853 99.3609 147.576 99.8331C147.455 100.042 147.299 100.214 147.121 100.338C146.943 100.461 146.745 100.532 146.543 100.546C146.52 100.626 146.484 100.699 146.438 100.76C146.392 100.821 146.337 100.87 146.276 100.903C146.014 101.016 145.733 101.031 145.465 100.944C145.197 100.858 144.954 100.674 144.764 100.416C144.375 99.8635 144.139 99.1614 144.091 98.4181C143.943 97.2886 143.851 95.7667 144.847 95.2435Z" fill="#EDC61B"/>
<path d="M188.773 148.496C188.311 147.951 188.039 147.23 188.008 146.469C187.957 145.711 188.139 144.956 188.522 144.337C188.905 143.717 189.464 143.272 190.103 143.08C190.425 142.988 190.76 142.975 191.086 143.042C191.413 143.108 191.724 143.253 191.999 143.466C192.258 143.66 192.479 143.915 192.647 144.214C192.815 144.514 192.926 144.851 192.973 145.203C193.019 145.501 193.006 145.808 192.935 146.1C192.865 146.393 192.738 146.663 192.564 146.891C192.416 147.096 192.239 147.272 192.041 147.41C191.889 147.494 191.731 147.563 191.569 147.615C191.315 148.113 190.955 148.528 190.522 148.821C190.237 148.981 189.916 149.036 189.603 148.977C189.29 148.919 189 148.751 188.773 148.496Z" fill="#EDC61B"/>
<path d="M134.732 99.7189C134.877 99.9328 134.967 100.183 134.992 100.444C135.018 100.706 134.979 100.97 134.879 101.211C134.82 101.313 134.747 101.405 134.664 101.486C134.621 101.558 134.567 101.622 134.506 101.677C134.357 101.809 134.184 101.907 133.997 101.963H133.929C133.824 102.187 133.678 102.387 133.5 102.551C133.321 102.715 133.113 102.84 132.889 102.918C132.642 103.007 132.378 103.024 132.123 102.967C131.869 102.91 131.633 102.782 131.442 102.596C131.252 102.395 131.116 102.144 131.049 101.869C130.981 101.594 130.984 101.305 131.057 101.032C131.193 100.491 131.482 100.006 131.887 99.6433C132.291 99.2805 132.79 99.057 133.318 99.0026C133.592 98.9867 133.865 99.0441 134.112 99.1693C134.359 99.2945 134.572 99.4835 134.732 99.7189Z" fill="#EDC61B"/>
<path d="M180.014 135.777C180.08 135.265 180.288 134.794 180.605 134.439C180.777 134.198 181.018 134.041 181.281 134C181.417 134.002 181.551 134.046 181.668 134.129C181.785 134.211 181.882 134.329 181.949 134.47C181.949 134.47 182.018 134.613 182.052 134.664C182.198 134.756 182.343 134.817 182.48 134.919C182.681 135.067 182.839 135.285 182.934 135.542C182.998 135.748 183.016 135.97 182.986 136.186C182.973 136.404 182.906 136.612 182.793 136.783C182.68 136.954 182.526 137.081 182.352 137.146C182.338 137.217 182.318 137.285 182.292 137.351C182.184 137.567 182.027 137.742 181.839 137.856C181.651 137.97 181.44 138.018 181.23 137.994C180.839 137.857 180.502 137.559 180.28 137.153C180.057 136.747 179.962 136.259 180.014 135.777Z" fill="#EDC61B"/>
</svg>
