<svg width="380" height="365" viewBox="0 0 425 414" fill="none" xmlns="http://www.w3.org/2000/svg">
<path d="M347.991 89.9431C347.706 78.7696 334.387 73.1412 326.175 80.7244L241.192 159.208C234.252 165.618 236.25 177.056 244.952 180.733L332.886 217.892C341.589 221.569 351.183 215.03 350.942 205.585L347.991 89.9431Z" fill="#6F86F3"/>
<path d="M113.122 57.9644C116.384 47.2739 130.723 45.4114 136.608 54.9139L197.514 153.261C202.488 161.293 197.505 171.781 188.136 172.998L93.4686 185.294C84.0999 186.51 76.6029 177.644 79.3601 168.608L113.122 57.9644Z" fill="#6F86F3"/>
<rect x="404.258" y="185.224" width="66.4664" height="88.9702" rx="22" transform="rotate(110.46 404.258 185.224)" fill="#4B68F0"/>
<rect x="404.258" y="185.224" width="66.4664" height="88.9702" rx="22" transform="rotate(110.46 404.258 185.224)" fill="black" fill-opacity="0.2"/>
<ellipse cx="204.691" cy="264.842" rx="167.764" ry="123.863" transform="rotate(7.75349 204.691 264.842)" fill="#2D2D2D"/>
<ellipse cx="291.413" cy="301.968" rx="40.7651" ry="25.0862" transform="rotate(7.75349 291.413 301.968)" fill="white" fill-opacity="0.33"/>
<ellipse cx="104.986" cy="276.585" rx="40.7651" ry="25.0862" transform="rotate(7.75349 104.986 276.585)" fill="white" fill-opacity="0.33"/>
<ellipse cx="37.6294" cy="49.3885" rx="37.6294" ry="49.3885" transform="matrix(-0.990858 -0.134911 -0.134911 0.990858 192.248 193.524)" fill="white"/>
<ellipse cx="27.4381" cy="36.0615" rx="27.4381" ry="36.0615" transform="matrix(-0.990858 -0.134911 -0.134911 0.990858 178.762 199.6)" fill="black"/>
<path d="M139.276 202.548C139.394 202.014 139.928 202.087 139.898 202.633L139.648 207.214C139.324 213.13 141.842 218.171 145.737 219.409L148.753 220.367C149.113 220.481 149.006 221.265 148.629 221.279L145.466 221.396C141.382 221.547 137.609 225.732 136.338 231.519L135.355 236.001C135.238 236.535 134.703 236.462 134.733 235.916L134.983 231.335C135.307 225.419 132.789 220.377 128.894 219.14L125.878 218.182C125.518 218.067 125.625 217.283 126.002 217.269L129.165 217.152C133.249 217.001 137.023 212.816 138.293 207.03L139.276 202.548Z" fill="#F5E187"/>
<circle cx="3.13578" cy="3.13578" r="3.13578" transform="matrix(0.718619 -0.695404 -0.695404 -0.718619 158.812 254.825)" fill="white" fill-opacity="0.23"/>
<ellipse cx="37.6294" cy="49.3885" rx="37.6294" ry="49.3885" transform="matrix(-0.990858 -0.134911 -0.134911 0.990858 308.765 209.389)" fill="white"/>
<ellipse cx="27.4381" cy="36.0615" rx="27.4381" ry="36.0615" transform="matrix(-0.990858 -0.134911 -0.134911 0.990858 295.279 215.464)" fill="black"/>
<path d="M255.793 218.413C255.91 217.879 256.445 217.951 256.415 218.497L256.165 223.079C255.841 228.994 258.359 234.036 262.253 235.274L265.27 236.232C265.629 236.346 265.523 237.13 265.146 237.144L261.983 237.261C257.899 237.412 254.125 241.597 252.855 247.384L251.872 251.865C251.754 252.4 251.22 252.327 251.25 251.781L251.5 247.199C251.823 241.284 249.306 236.242 245.411 235.005L242.395 234.046C242.035 233.932 242.142 233.148 242.519 233.134L245.682 233.017C249.766 232.866 253.539 228.681 254.809 222.894L255.793 218.413Z" fill="#F5E187"/>
<circle cx="3.13578" cy="3.13578" r="3.13578" transform="matrix(0.718619 -0.695404 -0.695404 -0.718619 275.329 270.689)" fill="white" fill-opacity="0.23"/>
<path d="M206.354 246.811C220.842 302.07 265.183 346.671 323.377 359.571C289.119 383.206 240.124 394.628 187.927 387.521C135.659 380.404 91.4516 356.243 64.7704 324.244C123.78 326.845 177.834 295.818 206.354 246.811Z" fill="white"/>
<ellipse cx="198.134" cy="313.003" rx="18.8147" ry="9.40734" transform="rotate(7.75349 198.134 313.003)" fill="#F5E187"/>
<rect width="65.2009" height="9.40969" rx="4.70484" transform="matrix(0.964241 -0.265027 0.316798 0.948493 303.626 282)" fill="white"/>
<rect x="304.493" y="280.825" width="65.8514" height="9.40734" rx="4.70367" transform="rotate(7.75349 304.493 280.825)" fill="white"/>
<rect width="65.2009" height="9.40969" rx="4.70484" transform="matrix(-0.858284 -0.513175 -0.558851 0.829268 105.464 255.019)" fill="white"/>
<rect width="65.8514" height="9.40734" rx="4.70367" transform="matrix(-0.990858 -0.134911 -0.134911 0.990858 104.943 253.655)" fill="white"/>
<path d="M351.053 200.965C350.532 204.796 347.003 207.479 343.173 206.957L85.1724 171.829C81.3418 171.307 78.6592 167.779 79.1808 163.948L81.5225 146.75C82.0441 142.919 85.5722 140.236 89.4029 140.758L347.403 175.886C351.234 176.408 353.916 179.936 353.395 183.767L351.053 200.965ZM192.818 177.717C192.446 180.453 194.362 182.973 197.098 183.346L232.242 188.131C234.979 188.503 237.499 186.587 237.871 183.851L239.239 173.809C239.76 169.978 237.078 166.45 233.247 165.929L202.066 161.683C198.235 161.161 194.707 163.844 194.186 167.675L192.818 177.717Z" fill="white"/>
<path d="M351.053 200.965C350.532 204.796 347.003 207.479 343.173 206.957L85.1724 171.829C81.3418 171.307 78.6592 167.779 79.1808 163.948L81.5225 146.75C82.0441 142.919 85.5722 140.236 89.4029 140.758L347.403 175.886C351.234 176.408 353.916 179.936 353.395 183.767L351.053 200.965ZM192.818 177.717C192.446 180.453 194.362 182.973 197.098 183.346L232.242 188.131C234.979 188.503 237.499 186.587 237.871 183.851L239.239 173.809C239.76 169.978 237.078 166.45 233.247 165.929L202.066 161.683C198.235 161.161 194.707 163.844 194.186 167.675L192.818 177.717Z" fill="url(#paint0_linear_1_8261)"/>
<path d="M94.4364 121.633C95.7776 111.783 104.85 104.885 114.7 106.226L335.366 136.271C345.216 137.612 352.114 146.684 350.773 156.535L348.125 175.985L91.7882 141.083L94.4364 121.633Z" fill="#6F86F3"/>
<defs>
<linearGradient id="paint0_linear_1_8261" x1="354" y1="208" x2="84.5" y2="140" gradientUnits="userSpaceOnUse">
<stop stop-color="#4B68F0"/>
<stop offset="1" stop-color="#2B3C8A"/>
</linearGradient>
</defs>
</svg>
