<svg width="545" height="529" viewBox="0 0 545 529" fill="none" xmlns="http://www.w3.org/2000/svg">
<path d="M471.764 383.554C478.777 375.256 485.121 366.189 490.673 356.387C538.395 272.128 509.449 165.517 426.018 118.264C374.971 89.3522 315.354 89.3609 265.836 113.027C252.19 75.8994 225.923 43.3169 188.964 22.3845C106.335 -24.4147 1.25445 4.56242 -47.1154 86.9785L-47.1342 86.9679C-139.834 34.4653 -257.965 67.7987 -310.99 161.421C-364.015 255.044 -331.854 373.499 -239.154 426.002L254.793 705.761C347.49 758.262 465.622 724.929 518.647 631.306C566.593 546.653 544.889 441.701 471.764 383.554Z" fill="#F3DA6A"/>
</svg>
