<svg width="504" height="493" viewBox="0 0 504 493" fill="none" xmlns="http://www.w3.org/2000/svg">
<path d="M424.452 416.153C432.061 407.15 438.945 397.312 444.968 386.677C496.746 295.257 465.34 179.584 374.818 128.315C319.433 96.9463 254.749 96.9558 201.022 122.633C186.216 82.3501 157.717 46.9984 117.617 24.2869C27.9646 -26.4899 -86.047 4.95008 -138.528 94.3709L-138.548 94.3594C-239.126 37.3945 -367.298 73.561 -424.83 175.141C-482.362 276.72 -447.467 405.243 -346.889 462.208L189.04 765.745C289.616 822.708 417.788 786.542 475.32 684.963C527.341 593.114 503.793 479.242 424.452 416.153Z" fill="white"/>
</svg>
