<svg width="545" height="557" viewBox="0 0 545 557" fill="none" xmlns="http://www.w3.org/2000/svg">
<path d="M72.4361 383.554C65.4229 375.256 59.0784 366.189 53.5268 356.387C5.80469 272.128 34.751 165.517 118.182 118.264C169.229 89.3522 228.846 89.3609 278.364 113.027C292.01 75.8994 318.277 43.3169 355.235 22.3845C437.865 -24.4147 542.945 4.56242 591.315 86.9785L591.334 86.9679C684.033 34.4653 802.164 67.7987 855.19 161.421C908.215 255.044 876.053 373.499 783.354 426.002L289.407 705.761C196.71 758.262 78.5778 724.929 25.5524 631.306C-22.3932 546.653 -0.689896 441.701 72.4361 383.554Z" fill="#F3DA6A"/>
</svg>
