<svg width="660" height="552" viewBox="0 0 660 552" fill="none" xmlns="http://www.w3.org/2000/svg">
<path d="M138.814 86.2222C145.125 62.4109 174.847 54.3615 192.312 71.7332L267.083 146.104C284.548 163.475 276.659 193.24 252.882 199.679L151.09 227.248C127.313 233.687 105.481 211.972 111.793 188.161L138.814 86.2222Z" fill="#2D2D2D"/>
<path d="M522.249 86.2222C515.937 62.4109 486.216 54.3615 468.75 71.7332L393.979 146.104C376.514 163.475 384.403 193.24 408.18 199.679L509.973 227.248C533.75 233.687 555.581 211.972 549.27 188.161L522.249 86.2222Z" fill="#2D2D2D"/>
<path d="M513.097 98.2446C508.955 82.6185 489.451 77.336 477.989 88.7362L420.95 145.469C409.489 156.869 414.666 176.402 430.27 180.628L507.921 201.658C523.525 205.884 537.852 191.634 533.71 176.008L513.097 98.2446Z" fill="#F5E187"/>
<path fill-rule="evenodd" clip-rule="evenodd" d="M477.438 88.7437C487.756 78.4804 504.298 81.124 511.5 92.4595C476.346 103.024 455.269 138.869 462.93 174.603L443.265 169.278C426.918 164.851 421.495 144.388 433.502 132.445L477.438 88.7437Z" fill="black" fill-opacity="0.19"/>
<path d="M153.482 98.2446C157.624 82.6185 177.129 77.336 188.59 88.7362L245.629 145.469C257.09 156.869 251.913 176.402 236.309 180.628L158.658 201.658C143.054 205.884 128.727 191.634 132.869 176.008L153.482 98.2446Z" fill="#F5E187"/>
<path fill-rule="evenodd" clip-rule="evenodd" d="M152.964 98.0182C157.111 82.5798 176.245 77.3065 187.717 88.2504C158.221 118.827 157.674 166.955 186.006 198.18L156.563 206.051C140.946 210.225 126.665 195.928 130.859 180.315L152.964 98.0182Z" fill="black" fill-opacity="0.19"/>
<path d="M619.44 337.194C619.44 280.97 589.577 226.986 536.263 186.833C482.949 146.68 410.433 123.558 334.284 122.432C258.134 121.305 184.422 142.264 128.971 180.808C73.52 219.352 40.7514 272.408 37.6998 328.588L328.453 337.194H619.44Z" fill="#6F86F3"/>
<ellipse cx="329.702" cy="344.688" rx="267.258" ry="197.322" fill="#2D2D2D"/>
<rect x="559.494" y="267.259" width="87.4209" height="139.873" rx="30" fill="#6F86F3"/>
<path fill-rule="evenodd" clip-rule="evenodd" d="M634.485 313.734C638.02 316.669 640.27 321.097 640.27 326.05V384.089C640.27 392.127 634.342 398.78 626.619 399.916C631.327 397.131 634.485 392.003 634.485 386.137V313.734Z" fill="#6F86F3"/>
<path fill-rule="evenodd" clip-rule="evenodd" d="M634.485 313.734C638.02 316.669 640.27 321.097 640.27 326.05V384.089C640.27 392.127 634.342 398.78 626.619 399.916C631.327 397.131 634.485 392.003 634.485 386.137V313.734Z" fill="white" fill-opacity="0.2"/>
<rect x="614.444" y="292.236" width="44.9593" height="92.4164" rx="21" fill="#6F86F3"/>
<rect x="614.444" y="292.236" width="44.9593" height="92.4164" rx="21" fill="white" fill-opacity="0.5"/>
<rect width="87.4209" height="139.873" rx="30" transform="matrix(-1 0 0 1 97.4119 267.259)" fill="#6F86F3"/>
<path fill-rule="evenodd" clip-rule="evenodd" d="M22.4208 313.734C18.8863 316.669 16.6357 321.097 16.6357 326.05V384.089C16.6359 392.127 22.5641 398.78 30.287 399.916C25.579 397.131 22.4208 392.003 22.4208 386.137V313.734Z" fill="#6F86F3"/>
<path fill-rule="evenodd" clip-rule="evenodd" d="M22.4208 313.734C18.8863 316.669 16.6357 321.097 16.6357 326.05V384.089C16.6359 392.127 22.5641 398.78 30.287 399.916C25.579 397.131 22.4208 392.003 22.4208 386.137V313.734Z" fill="white" fill-opacity="0.2"/>
<rect width="44.9593" height="92.4164" rx="21" transform="matrix(-1 0 0 1 44.9593 292.236)" fill="#6F86F3"/>
<rect width="44.9593" height="92.4164" rx="21" transform="matrix(-1 0 0 1 44.9593 292.236)" fill="white" fill-opacity="0.5"/>
<path d="M328.453 315.878C363.199 399.985 442.777 460.858 537.405 468.714C488.408 513.383 413.524 541.94 329.606 541.94C245.573 541.94 170.599 513.304 121.605 468.529C215.308 459.952 293.965 399.361 328.453 315.878Z" fill="url(#paint0_linear_1_8360)"/>
<ellipse cx="329.702" cy="422.118" rx="29.9729" ry="14.9864" fill="#F5E187"/>
<ellipse cx="479.566" cy="387.15" rx="64.9413" ry="39.9639" fill="white" fill-opacity="0.33"/>
<rect width="103.869" height="14.9902" rx="7.49509" transform="matrix(0.919671 -0.392691 0.441864 0.897082 489.557 350.509)" fill="white"/>
<rect x="490.673" y="348.467" width="104.905" height="14.9864" rx="7.49322" fill="white"/>
<rect width="103.869" height="14.9902" rx="7.49509" transform="matrix(-0.919671 -0.392691 -0.441864 0.897082 170.962 350.509)" fill="white"/>
<rect width="104.905" height="14.9864" rx="7.49322" transform="matrix(-1 0 0 1 169.846 348.467)" fill="white"/>
<ellipse cx="179.837" cy="387.15" rx="64.9413" ry="39.9639" fill="white" fill-opacity="0.33"/>
<path d="M332.2 435.856C332.2 438.644 331.65 441.405 330.583 443.98C329.516 446.556 327.953 448.897 325.981 450.868C324.01 452.84 321.669 454.404 319.093 455.47C316.518 456.537 313.757 457.087 310.969 457.087C308.181 457.087 305.42 456.537 302.844 455.47C300.268 454.404 297.928 452.84 295.956 450.868C293.985 448.897 292.421 446.556 291.354 443.98C290.287 441.405 289.738 438.644 289.738 435.856H298.755C298.755 437.46 299.071 439.048 299.684 440.53C300.298 442.012 301.198 443.358 302.332 444.492C303.466 445.627 304.813 446.526 306.295 447.14C307.776 447.754 309.365 448.07 310.969 448.07C312.573 448.07 314.161 447.754 315.643 447.14C317.125 446.526 318.471 445.627 319.605 444.492C320.739 443.358 321.639 442.012 322.253 440.53C322.867 439.048 323.183 437.46 323.183 435.856H332.2Z" fill="#F5E187"/>
<path d="M369.666 435.856C369.666 438.644 369.116 441.405 368.05 443.98C366.983 446.556 365.419 448.897 363.447 450.868C361.476 452.84 359.135 454.404 356.56 455.47C353.984 456.537 351.223 457.087 348.435 457.087C345.647 457.087 342.886 456.537 340.31 455.47C337.734 454.404 335.394 452.84 333.422 450.868C331.451 448.897 329.887 446.556 328.82 443.98C327.753 441.405 327.204 438.644 327.204 435.856H336.348C336.348 437.443 336.661 439.015 337.268 440.481C337.876 441.948 338.766 443.28 339.888 444.402C341.011 445.525 342.343 446.415 343.809 447.023C345.276 447.63 346.848 447.943 348.435 447.943C350.022 447.943 351.594 447.63 353.06 447.023C354.527 446.415 355.859 445.525 356.981 444.402C358.104 443.28 358.994 441.948 359.602 440.481C360.209 439.015 360.522 437.443 360.522 435.856H369.666Z" fill="#F5E187"/>
<ellipse cx="59.9458" cy="78.6788" rx="59.9458" ry="78.6788" transform="matrix(1 0 0 -1 362.172 384.652)" fill="white"/>
<ellipse cx="43.7105" cy="57.448" rx="43.7105" ry="57.448" transform="matrix(1 0 0 -1 382.154 372.164)" fill="black"/>
<path d="M428.862 359.024C428.792 359.893 427.933 359.893 427.863 359.024L427.273 351.739C426.512 342.332 421.455 334.915 415.041 333.798L410.074 332.934C409.481 332.831 409.481 331.571 410.074 331.467L415.041 330.603C421.455 329.487 426.512 322.07 427.273 312.662L427.863 305.377C427.933 304.508 428.792 304.508 428.862 305.377L429.452 312.662C430.213 322.07 435.27 329.487 441.684 330.603L446.651 331.467C447.244 331.571 447.244 332.831 446.651 332.934L441.684 333.798C435.27 334.915 430.213 342.332 429.452 351.739L428.862 359.024Z" fill="#F5E187"/>
<circle cx="4.99548" cy="4.99548" r="4.99548" transform="matrix(-0.618231 0.785996 0.785996 0.618231 405.815 284.743)" fill="white" fill-opacity="0.23"/>
<ellipse cx="59.9458" cy="78.6788" rx="59.9458" ry="78.6788" transform="matrix(1 0 0 -1 174.842 384.652)" fill="white"/>
<ellipse cx="43.7105" cy="57.448" rx="43.7105" ry="57.448" transform="matrix(1 0 0 -1 194.824 372.164)" fill="black"/>
<path d="M241.532 359.024C241.462 359.893 240.602 359.893 240.532 359.024L239.943 351.739C239.182 342.332 234.124 334.915 227.71 333.798L222.743 332.934C222.151 332.831 222.151 331.571 222.743 331.467L227.71 330.603C234.124 329.487 239.182 322.07 239.943 312.662L240.532 305.377C240.602 304.508 241.462 304.508 241.532 305.377L242.121 312.662C242.882 322.07 247.939 329.487 254.354 330.603L259.321 331.467C259.913 331.571 259.913 332.831 259.321 332.934L254.354 333.798C247.939 334.915 242.882 342.332 242.121 351.739L241.532 359.024Z" fill="#F5E187"/>
<circle cx="4.99548" cy="4.99548" r="4.99548" transform="matrix(-0.618231 0.785996 0.785996 0.618231 218.485 284.743)" fill="white" fill-opacity="0.23"/>
<defs>
<linearGradient id="paint0_linear_1_8360" x1="329.505" y1="315.878" x2="329.505" y2="541.94" gradientUnits="userSpaceOnUse">
<stop stop-color="white"/>
<stop offset="1" stop-color="#FFF8D9"/>
</linearGradient>
</defs>
</svg>
