<svg width="437" height="370" viewBox="0 0 518 336" fill="none" xmlns="http://www.w3.org/2000/svg">
<path d="M91.6238 135.882C91.5969 125.875 102.413 119.591 111.094 124.571L209.591 181.087C218.271 186.067 218.305 198.576 209.652 203.603L111.459 260.647C102.806 265.674 91.9558 259.448 91.9289 249.441L91.6238 135.882Z" fill="#2D2D2D"/>
<path d="M354.199 65.5249C349.219 56.8448 336.71 56.8112 331.683 65.4644L274.639 163.657C269.612 172.31 275.838 183.16 285.845 183.187L399.404 183.492C409.411 183.519 415.695 172.703 410.715 164.023L354.199 65.5249Z" fill="#2D2D2D"/>
<path d="M355.228 84.8864C351.013 77.5417 340.429 77.5132 336.175 84.8352L298.896 149.006C294.642 156.328 299.91 165.508 308.378 165.531L382.591 165.731C391.058 165.753 396.375 156.601 392.161 149.256L355.228 84.8864Z" fill="#F5E187"/>
<path fill-rule="evenodd" clip-rule="evenodd" d="M336.425 83.8479C340.678 76.526 351.263 76.5544 355.477 83.8991L357.432 87.307C334.051 101.303 325.66 131.014 337.98 155.089L314.157 155.025C305.69 155.002 300.422 145.821 304.675 138.499L336.425 83.8479Z" fill="black" fill-opacity="0.19"/>
<path d="M104.321 152.117C104.298 143.649 113.451 138.332 120.796 142.546L185.165 179.48C192.51 183.694 192.539 194.279 185.217 198.532L121.046 235.811C113.724 240.065 104.543 234.797 104.521 226.329L104.321 152.117Z" fill="#F5E187"/>
<path fill-rule="evenodd" clip-rule="evenodd" d="M102.953 152.717C102.958 144.249 112.127 138.963 119.458 143.201L125.285 146.569C110.475 173.314 119.057 206.868 144.565 223.295L119.401 237.804C112.065 242.033 102.901 236.735 102.906 228.267L102.953 152.717Z" fill="black" fill-opacity="0.19"/>
<ellipse cx="268.794" cy="274.288" rx="195.946" ry="144.671" transform="rotate(-15 268.794 274.288)" fill="#2D2D2D"/>
<path d="M263.012 249.948C304.119 303.627 373.299 331.672 442.73 318.02C417.192 360.947 368.273 397.364 306.646 413.877C245.04 430.384 184.488 423.316 140.911 398.93C208.136 376.159 254.23 317.155 263.012 249.948Z" fill="white"/>
<ellipse cx="283.824" cy="328.158" rx="21.9753" ry="10.9876" transform="rotate(-15 283.824 328.158)" fill="#F5E187"/>
<path d="M234.183 234.27C236.984 244.723 238.605 255.383 238.952 265.64C239.3 275.898 238.367 285.553 236.209 294.053C234.05 302.554 230.707 309.734 226.371 315.183C222.035 320.633 216.79 324.245 210.936 325.813C205.082 327.382 198.734 326.876 192.254 324.325C185.774 321.774 179.289 317.227 173.169 310.945C167.05 304.662 161.415 296.767 156.587 287.71C151.759 278.653 147.833 268.611 145.032 258.158L189.608 246.214L234.183 234.27Z" fill="black"/>
<path d="M176.872 249.626C178.264 254.822 180.046 259.875 182.162 264.648L209.842 261.92L197.905 288.267C201.999 292.272 206.302 295.196 210.602 296.889C215.23 298.711 219.765 299.072 223.946 297.952C228.127 296.831 231.873 294.251 234.971 290.359C236.004 289.061 236.954 287.624 237.824 286.062C237.398 288.82 236.859 291.489 236.208 294.053C234.05 302.554 230.708 309.734 226.371 315.183C222.035 320.633 216.79 324.244 210.936 325.813C205.083 327.381 198.734 326.876 192.255 324.325C185.775 321.774 179.289 317.227 173.169 310.944C167.05 304.662 161.415 296.767 156.587 287.71C151.759 278.653 147.833 268.611 145.032 258.158L176.872 249.626Z" fill="white"/>
<ellipse cx="382.984" cy="275.921" rx="47.6131" ry="29.3004" transform="rotate(-15 382.984 275.921)" fill="white" fill-opacity="0.33"/>
<rect width="76.1537" height="10.9904" rx="5.49519" transform="matrix(0.786698 -0.617338 0.65899 0.752152 383.106 248.076)" fill="white"/>
<rect x="383.509" y="246.418" width="76.9135" height="10.9876" rx="5.49382" transform="rotate(-15 383.509 246.418)" fill="white"/>
<rect width="76.1537" height="10.9904" rx="5.49519" transform="matrix(-0.989969 -0.141282 -0.194626 0.980878 157.481 308.532)" fill="white"/>
<rect width="76.9135" height="10.9876" rx="5.49382" transform="matrix(-0.965926 0.258819 0.258819 0.965926 156.303 307.298)" fill="white"/>
<ellipse cx="170.719" cy="332.797" rx="47.6131" ry="29.3004" transform="rotate(-15 170.719 332.797)" fill="white" fill-opacity="0.33"/>
<path d="M367.91 198.438C370.711 208.891 372.331 219.551 372.679 229.808C373.026 240.066 372.094 249.721 369.935 258.221C367.777 266.722 364.434 273.902 360.098 279.351C355.761 284.801 350.516 288.413 344.663 289.981C338.809 291.55 332.461 291.044 325.981 288.493C319.501 285.942 313.016 281.395 306.896 275.113C300.776 268.83 295.142 260.935 290.314 251.878C285.486 242.821 281.559 232.779 278.759 222.326L323.334 210.382L367.91 198.438Z" fill="black"/>
<path d="M310.598 213.794C311.99 218.99 313.772 224.043 315.889 228.816L343.569 226.088L331.631 252.435C335.726 256.44 340.028 259.364 344.329 261.057C348.957 262.879 353.492 263.24 357.673 262.12C361.854 260.999 365.6 258.419 368.697 254.527C369.73 253.23 370.681 251.793 371.55 250.232C371.124 252.99 370.586 255.658 369.935 258.221C367.776 266.722 364.434 273.902 360.098 279.352C355.762 284.801 350.517 288.413 344.663 289.981C338.809 291.55 332.461 291.044 325.981 288.493C319.501 285.942 313.016 281.395 306.896 275.113C300.776 268.83 295.142 260.935 290.314 251.878C285.486 242.821 281.559 232.779 278.759 222.326L310.598 213.794Z" fill="white"/>
<rect x="279.949" y="330.071" width="7.32509" height="29.3004" transform="rotate(-15 279.949 330.071)" fill="#F5E187"/>
</svg>
