<svg width="388" height="256" viewBox="0 0 388 256" fill="none" xmlns="http://www.w3.org/2000/svg">
<path d="M81.108 51.0179C83.2819 40.0542 97.3623 36.7636 104.17 45.6283L173.524 135.936C179.278 143.428 175.371 154.363 166.172 156.513L74.6716 177.896C65.472 180.046 57.124 171.976 58.9615 162.709L81.108 51.0179Z" fill="#DCE1FC"/>
<path d="M315.489 59.2023C314.085 48.1136 300.269 43.8489 292.859 52.217L217.375 137.466C211.112 144.54 214.247 155.72 223.274 158.506L313.059 186.22C322.087 189.007 330.977 181.539 329.791 172.166L315.489 59.2023Z" fill="#DCE1FC"/>
<rect width="65.7334" height="87.9892" rx="22" transform="matrix(0.185776 0.982592 0.982592 -0.185776 10.3638 134.148)" fill="#4B68F0"/>
<rect width="65.7334" height="87.9892" rx="22" transform="matrix(0.185776 0.982592 0.982592 -0.185776 10.3638 134.148)" fill="black" fill-opacity="0.2"/>
<ellipse cx="165.914" cy="122.497" rx="165.914" ry="122.497" transform="matrix(-0.999391 -0.0348995 -0.0348995 0.999391 361.627 128.554)" fill="#2D2D2D"/>
<ellipse cx="40.3156" cy="24.8096" rx="40.3156" ry="24.8096" transform="matrix(-0.999391 -0.0348995 -0.0348995 0.999391 141.949 243.455)" fill="white" fill-opacity="0.33"/>
<ellipse cx="40.3156" cy="24.8096" rx="40.3156" ry="24.8096" transform="matrix(-0.999391 -0.0348995 -0.0348995 0.999391 327.908 249.949)" fill="white" fill-opacity="0.33"/>
<ellipse cx="251.102" cy="227.873" rx="37.2144" ry="48.8439" transform="rotate(2 251.102 227.873)" fill="white"/>
<ellipse cx="253.616" cy="222.53" rx="27.1355" ry="35.6638" transform="rotate(2 253.616 222.53)" fill="black"/>
<path d="M265.733 195.43C265.708 194.89 265.175 194.871 265.113 195.408L264.589 199.915C263.913 205.736 260.615 210.228 256.612 210.781L253.511 211.21C253.141 211.261 253.114 212.043 253.479 212.12L256.542 212.764C260.498 213.595 263.474 218.307 263.743 224.16L263.951 228.692C263.975 229.233 264.508 229.251 264.571 228.714L265.094 224.207C265.77 218.387 269.069 213.895 273.072 213.341L276.173 212.912C276.543 212.861 276.57 212.079 276.205 212.002L273.142 211.359C269.186 210.527 266.209 205.816 265.941 199.963L265.733 195.43Z" fill="#F5E187"/>
<circle cx="238.606" cy="238.776" r="3.1012" transform="rotate(-126.187 238.606 238.776)" fill="white" fill-opacity="0.23"/>
<ellipse cx="134.878" cy="223.814" rx="37.2144" ry="48.8439" transform="rotate(2 134.878 223.814)" fill="white"/>
<ellipse cx="137.391" cy="218.471" rx="27.1355" ry="35.6638" transform="rotate(2 137.391 218.471)" fill="black"/>
<path d="M149.509 191.371C149.484 190.831 148.951 190.812 148.889 191.35L148.365 195.857C147.689 201.677 144.391 206.169 140.387 206.723L137.287 207.151C136.917 207.203 136.89 207.984 137.255 208.061L140.318 208.705C144.273 209.537 147.25 214.248 147.519 220.101L147.726 224.634C147.751 225.174 148.284 225.193 148.347 224.655L148.87 220.148C149.546 214.328 152.845 209.836 156.848 209.282L159.949 208.854C160.318 208.803 160.346 208.021 159.981 207.944L156.917 207.3C152.962 206.468 149.985 201.757 149.717 195.904L149.509 191.371Z" fill="#F5E187"/>
<circle cx="122.382" cy="234.717" r="3.1012" transform="rotate(-126.187 122.382 234.717)" fill="white" fill-opacity="0.23"/>
<path d="M192.938 227.334C169.558 278.766 118.867 314.809 59.9846 317.632C89.4157 346.408 135.257 365.751 187.323 367.569C239.46 369.39 286.597 353.247 317.964 326.528C260.013 319.176 212.525 279.878 192.938 227.334Z" fill="white"/>
<rect width="64.4819" height="9.30592" rx="4.65296" transform="matrix(-0.905406 -0.424548 -0.472903 0.881115 92.2342 245.334)" fill="white"/>
<rect width="65.1252" height="9.3036" rx="4.6518" transform="matrix(-0.999391 -0.0348995 -0.0348995 0.999391 91.5862 244.043)" fill="white"/>
<rect width="64.4819" height="9.30592" rx="4.65296" transform="matrix(0.932815 -0.360355 0.410287 0.911956 289.898 252.236)" fill="white"/>
<rect x="290.635" y="250.994" width="65.1252" height="9.3036" rx="4.6518" transform="rotate(2 290.635 250.994)" fill="white"/>
<path d="M59.5866 158.328C59.4517 162.192 62.4744 165.433 66.3381 165.568L323.537 174.55C327.4 174.685 330.642 171.662 330.777 167.798L331.37 150.797C331.505 146.933 328.483 143.692 324.619 143.557L67.4204 134.575C63.5567 134.44 60.3152 137.463 60.1803 141.327L59.5866 158.328ZM217.71 162.2C217.614 164.96 215.298 167.119 212.538 167.023L177.592 165.803C174.832 165.706 172.673 163.391 172.77 160.631L173.115 150.746C173.25 146.883 176.491 143.86 180.355 143.995L211.304 145.076C215.167 145.211 218.19 148.452 218.055 152.316L217.71 162.2Z" fill="#4B68F0"/>
<path d="M322.987 124.274C323.334 114.339 315.562 106.004 305.626 105.657L85.9113 97.9843C75.9763 97.6373 67.6411 105.41 67.2941 115.345L66.6235 134.548L322.317 143.477L322.987 124.274Z" fill="#DCE1FC"/>
</svg>
