<svg viewBox="0 0 35 36" fill="none" xmlns="http://www.w3.org/2000/svg">
<rect width="35" height="36" rx="17.5" fill="white"/>
<path d="M21.7875 15.1129L12.8875 24.0129C12.7042 24.1962 12.4709 24.2879 12.1875 24.2879C11.9042 24.2879 11.6709 24.1962 11.4875 24.0129C11.3042 23.8296 11.2125 23.5962 11.2125 23.3129C11.2125 23.0296 11.3042 22.7962 11.4875 22.6129L20.3875 13.7129H12.7875C12.5042 13.7129 12.2669 13.6169 12.0755 13.4249C11.8842 13.2329 11.7882 12.9956 11.7875 12.7129C11.7869 12.4302 11.8829 12.1929 12.0755 12.0009C12.2682 11.8089 12.5055 11.7129 12.7875 11.7129H22.7875C23.0709 11.7129 23.3085 11.8089 23.5005 12.0009C23.6925 12.1929 23.7882 12.4302 23.7875 12.7129V22.7129C23.7875 22.9962 23.6915 23.2339 23.4995 23.4259C23.3075 23.6179 23.0702 23.7136 22.7875 23.7129C22.5049 23.7122 22.2675 23.6162 22.0755 23.4249C21.8835 23.2336 21.7875 22.9962 21.7875 22.7129V15.1129Z" fill="currentColor"/>
</svg>
